<svg width="669" height="669" viewBox="0 0 669 669" fill="none" xmlns="http://www.w3.org/2000/svg">
<circle cx="334.5" cy="334.5" r="334.5" fill="#232323"/>
<path d="M428.229 417.221C421.483 413.955 409.704 413.62 400.859 415.224C398.089 415.708 399.371 414.999 397.473 415.362C394.431 415.956 390.824 417.276 389.307 417.946C388.982 418.111 388.663 418.286 388.341 418.477C387.616 418.925 388.083 417.735 387.304 418.263C382.929 421.335 380.579 428.255 377.573 435.703C377.067 436.939 376.543 438.196 375.981 439.466C371.433 448.342 379.139 457.035 385.666 470.364C388.546 478.048 393.167 485.653 396.374 494.698C400.195 505.529 401.494 516.949 401.979 528.028C402.353 535.466 398.504 541.689 394.981 546.364C392.745 549.325 390.26 552.123 387.751 554.955C380.786 562.619 371.509 566.015 364.304 570.111C362.554 571.085 360.744 571.875 358.999 572.525C357.35 573.121 358.521 573.342 358.219 573.496C353.374 575.701 354.737 574.034 351.473 574.569C338.474 576.294 324.641 575.166 312.718 573.849C307.651 573.239 312.553 575.134 307.557 573.719C307.214 573.62 308.581 573.201 307.22 572.919C304.129 572.297 298.185 571.299 295.809 570.729C292.072 569.85 290.851 569.545 288.251 568.877C287.661 568.723 287.001 568.558 286.209 568.377C280.623 567.026 273.833 566.277 267.221 565.983C265.798 565.896 267.644 566.707 265.328 566.602C264.158 566.533 261.958 566.325 259.643 565.69C257.558 565.115 255.649 564.376 254.709 563.947C252.824 563.074 253.84 562.913 253.541 562.676C251.122 560.736 244.394 559.029 243.589 558.646C240.915 557.445 238.367 556.195 235.907 554.956C227.43 550.623 220.261 545.788 212.647 541.453C210.038 539.964 207.439 538.41 204.82 536.774C198.816 533.008 192.709 528.79 187.278 523.769C184.21 520.924 180.89 518.306 177.687 515.782C171.913 511.085 166.295 507.473 161.378 501.1C158.595 497.084 155.788 493.043 152.867 488.7C152.13 487.599 152.359 489.314 151.457 487.962C148.268 483.135 145.184 478.195 142.667 472.701C138.012 462.334 134.07 451.85 130.155 441.426C130.131 441.362 130.107 441.298 130.083 441.234C129.464 439.542 130.928 441.445 130.365 439.755C127.815 431.931 126.41 420.76 123.578 413.557C122.627 411.024 121.928 408.769 121.089 407.223C120.753 400.862 120.843 394.014 120.873 388.139C120.886 387.124 120.912 386.153 120.953 385.237C121.14 381.144 122.032 385.068 121.518 380.087C121.406 378.963 120.829 380.45 120.711 378.766C120.216 371.645 120.288 363.867 119.987 356.816C119.925 355.364 119.357 355.761 119.257 355.351C118.443 351.913 119.925 346.256 120.065 345.003C121.118 335.532 121.028 328.833 122.185 319.713C122.185 319.709 122.186 319.704 122.187 319.7C122.508 317.75 121.386 319.937 121.665 318.054C123.272 308.875 122.71 299.145 126.367 289.083C126.583 288.543 126.794 288.008 127.004 287.471C127.782 285.458 127.747 287.544 128.149 286.59C129.888 282.339 128.992 281.008 130.481 276.846C130.791 275.964 131.179 276.622 131.285 276.475C132.938 274.171 132.263 271.551 132.425 270.877C133.511 266.226 134.938 262.581 136.517 258.973C137.898 255.819 139.562 252.916 141.36 249.428C141.836 248.515 140.086 250.213 141.481 247.657C147.312 237.045 155.102 227.148 161.046 217.146C164.871 210.366 170.181 205.259 175.124 200.351C177.216 198.314 176.144 200.18 176.318 200.093C179.135 198.649 179.505 196.339 180.145 195.615C184.842 190.358 190.159 186.378 192.762 181.934C192.932 181.647 193.089 181.361 193.234 181.075C199.977 174.533 206.97 167.602 216.169 163.508C227.34 158.53 239.21 156.016 250.652 153.534C260.859 151.299 271.082 149.472 281.332 147.851C281.727 147.787 281.161 148.587 281.946 148.458C291.421 146.899 289.412 146.25 295.358 143.712C296.269 143.324 298.49 143.359 300.196 143.445C301.36 143.488 302.275 143.609 302.456 143.624C304.12 143.789 302.613 145.027 303.157 145.026C307.521 145.109 306.578 141.889 312.565 141.644C312.753 141.644 311.983 142.275 312.489 142.32C314.038 142.461 315.549 142.187 317.055 142.366C320.486 142.781 321.746 144.37 326.944 143.325C327.593 143.187 326.546 141.35 331.77 141.303C332.726 141.294 335.271 141.225 337.948 141.145C341.022 141.051 344.315 141.007 345.7 141.047C348.29 141.124 346.523 141.757 346.709 141.78C353.708 142.475 351.067 142.848 354.559 143.993C358.05 145.143 357.083 142.347 358.494 142.027C359.928 141.705 365.034 142.354 366.291 142.586C367.545 142.815 365.98 143.197 367.096 143.327C374.494 144.189 370.346 141.943 372.789 141.506C378.548 140.477 383.015 142.595 388.271 142.858C389.69 142.93 388.537 142.442 389.808 142.413C394.828 142.307 397.851 142.999 403.561 142.507C404.511 142.426 409.15 141.266 412.115 142.255C412.538 142.397 411.325 142.886 413.465 143.054C413.629 143.067 413.799 143.08 413.974 143.093C417.25 143.324 422.619 143.649 425.872 143.721C428.442 143.779 425.577 142.705 428.764 143.221C430.178 143.46 427.513 143.732 430.146 144.142C432.802 144.526 439.553 145.348 442.101 145.811C444.653 146.242 443.376 145.362 443.587 145.353C444.889 145.307 449.864 146.061 450.286 146.186C454.743 147.219 459.001 148.529 463.179 149.614C471.904 151.801 479.99 155.938 486.905 161.217C493.518 166.184 499.379 171.949 505.007 178.149C506.14 179.414 505.917 178.114 506.095 178.302C510.083 182.604 505.753 180.223 507.807 183.743C508.507 182.463 509.831 184.339 512.191 187.563C512.234 187.623 512.278 187.683 512.322 187.744C513.467 189.291 513.32 188.12 513.463 188.234C515.738 190.082 516.124 192.253 516.272 192.798C516.822 194.789 518.876 195.791 519.31 197.12C519.754 198.452 517.207 196.672 519.748 199.625C520.832 200.124 519.937 197.099 522.019 199.192C524.631 201.893 528.136 205.413 530.754 210.366C535.416 219.34 539.751 229.711 542.1 235.157C542.998 237.214 543.739 238.91 544.387 240.391C546.324 244.828 547.376 247.219 548.782 250.88C552.119 259.716 551.676 256.153 554.266 261.452C556.813 266.8 553.556 264.968 553.387 265.938C553.206 266.893 554.013 267.553 554.107 268.614C554.197 269.67 553.11 267.711 553.839 270.006C554.59 272.288 557.526 278.23 558.258 278.908C559.814 280.302 560.176 277.222 561.441 283.04C561.469 283.177 561.497 283.318 561.525 283.464C561.594 283.829 560.69 282.82 560.985 284.211C562.62 291.918 563.892 299.907 564.452 307.856C564.695 311.28 564.807 314.702 564.824 318.077C564.828 319.621 564.08 318.27 564.074 319.17C563.924 328.472 564.97 325.11 566.34 330.215C564.596 329.084 563.608 331.913 563.538 338.954C563.483 343.191 564.241 342.47 564.722 345.229C564.868 346.055 564.278 349.042 564.616 349.6C565.719 351.43 567.12 348.636 566.356 355.911C566.32 356.228 565.723 355.189 565.644 356.294C565.103 363.431 566.299 364.338 565.945 372.093C565.895 373.036 565.823 374.001 565.703 375.112C565.045 381.716 561.743 389.954 559.728 395.459C558.221 394.809 556.739 399.219 556.61 402.352C556.577 402.949 556.56 403.506 556.583 403.987C554.693 408.419 551.523 412.377 548.414 415.466C547.336 416.526 547.606 415.415 547.431 415.513C544.76 416.949 544.28 419.206 543.616 419.926C542.332 421.293 541.051 422.559 539.775 423.774C533.355 429.721 525.658 430.915 517.961 433.727C517.622 433.844 517.375 435.299 514.54 434.949C514.356 434.921 517.424 433.582 512.842 434.593C510.656 435.071 507.541 435.588 504.184 436.238C500.384 436.978 496.52 437.706 493.102 438.613C491.626 439.023 487.695 440.738 484.416 440.221C483.965 440.152 484.401 439.717 483.752 439.569C481.705 439.086 480.683 440.544 478.307 439.523C475.849 438.471 471.124 437.921 464.641 437.915C464.442 437.91 462.75 438.795 460.711 438.357C457.463 437.706 453.056 435.964 450.028 434.35C448.567 433.589 449.184 434.669 448.924 434.546C445.775 433.02 443.183 431.107 440.493 430.175C433.972 427.978 428.691 424.375 421.697 420.202C421.359 420.004 420.886 419.768 420.322 419.507C417.768 418.289 413.191 416.83 410.224 414.974C406.502 412.595 411.207 411.438 403.457 408.396C403 408.208 402.503 408.012 401.952 407.805C397.926 406.581 392.049 406.717 384.885 405.664C384.582 405.646 384.286 405.633 383.965 405.634C376.219 408.735 375.719 417.276 372.449 423.041C369.012 429.918 368.282 437.633 368.043 445.383C368.026 446.05 369.043 448.281 368.941 449.837C368.784 452.17 368.18 453.455 368.07 455.116C367.709 460.499 367.802 465.516 367.75 470.653C367.735 472.207 367.822 473.763 368.023 475.32C368.432 477.825 367.639 477.086 368.511 480.069C369.55 483.024 371.088 484.525 373.306 488.008C374.671 490.083 375.729 492.612 377.731 495.032C378.199 495.612 378.691 496.207 379.237 496.813C380.395 495.864 382.41 497.883 385.81 501.695C386.467 502.425 386.24 501.274 386.573 501.604C387.937 502.942 388.636 504.601 389.958 505.833C390.279 506.132 390.695 505.836 390.979 506.059C392.576 507.309 394.075 509.615 395.174 511.179C395.834 512.093 396.183 512.864 396.314 513.152C397.653 516.369 398.689 517.577 399.144 520.15C399.462 522.689 398.228 519.118 398.702 521.994C399.591 527.949 399.063 535.73 397.872 541.749C397.394 544.141 398.384 542.645 398.331 542.989C397.705 546.557 396.514 549.985 395.614 552.666C395.153 553.751 394.617 554.681 394.299 555.577C390.127 555.539 391.299 557.101 388.587 560.546C388.552 560.589 388.441 560.667 388.39 560.687C387.677 561.015 386.806 561.317 385.741 561.546C385.161 561.665 384.017 560.299 385.98 559.406C386.474 559.176 387.045 558.963 387.66 558.741L386.977 559.231C388.43 557.473 390.627 556.107 391.999 554.431C392.3 554.09 393.086 552.295 393.029 551.26C392.927 551.185 392.965 550.807 392.954 550.586C392.948 550.362 392.963 550.145 392.973 550.069C393.533 546.033 395.976 545.93 396.187 545.767C398.295 543.556 397.497 538.257 397.499 536.987C397.694 531.057 398.001 525.965 396.546 521.464C395.504 518.569 393.836 518.963 392.95 517.213C392.44 516.304 391.944 515.555 391.44 514.897C387.246 509.71 386.687 506.063 381.176 501.843C379.764 500.864 379.561 503.031 376.703 498.065C376.644 497.97 376.405 497.537 376.015 496.98C374.884 495.532 373.04 493.16 371.283 491.958C370.96 491.739 370.573 492.085 370.213 491.723C367.836 489.24 366.827 487.04 365.087 483.584C363.34 480.112 362.091 475.343 362.371 470.984C362.379 470.828 362.391 470.669 362.408 470.508C362.657 468.295 363.6 465.727 363.855 464.704C364.629 461.672 363.634 458.367 364.537 456.491C365.446 454.623 366.537 458.393 367.296 453.421C365.961 453.171 364.603 452.679 363.266 452.316C364.025 442.282 364.206 432.016 369.072 421.404C369.43 420.67 369.772 419.883 370.107 419.061C370.589 417.86 369.419 418.821 369.916 417.511C370.968 414.75 372.06 411.922 373.884 408.902C375.592 406.041 378.95 402.019 384.223 401.209C384.343 401.189 384.464 401.17 384.584 401.152C391.881 400.279 397.682 402.795 402.502 404.652C402.963 405.21 403.621 405.767 404.413 406.313C407.362 408.405 412.814 410.193 416.998 412.174C418.835 413.053 418.54 413.376 419.799 414.128C421.122 414.926 421.936 415.358 422.463 415.545C423.787 416.016 423.246 414.864 424.265 415.25C430.223 417.524 428.983 420.604 435.295 423.675C435.647 423.884 440.317 424.109 440.869 424.147C441.618 424.275 442.075 424.365 442.352 424.451C444.051 425.05 441.579 424.938 444.002 426.051C448.944 428.771 450.755 430.909 455.643 432.269C457.058 432.687 460.541 432.696 463.181 433.916C463.534 434.081 463.239 434.582 463.54 434.663C468.984 435.954 469.35 434.101 472.5 433.624C475.66 433.117 480.684 433.934 481.76 434.157C484.52 434.78 479.748 434.72 479.586 434.796C477.939 435.93 481.618 435.536 484.51 435.279C485.067 436.914 489.156 436.27 487.482 434.992C487.281 434.86 485.065 435.298 484.51 435.279C486.817 433.373 491.035 432.583 496.14 433.159C498.519 433.409 496.576 434.725 503.398 432.911C503.407 432.909 503.417 432.906 503.426 432.904C506.508 432.057 505.056 431.213 507.756 430.283C513.92 428.134 522.408 427.447 528.088 424.982C530.109 424.073 527.89 424.329 529.224 423.68C531.775 422.393 533.947 421.285 535.829 419.568C536.647 418.815 537.457 418.034 538.248 417.191C538.517 416.902 537.368 417.09 538.337 416.151C543.784 410.797 548.883 405.973 550.923 400.455C551.77 398.04 552.654 395.625 553.517 393.127C555.272 388.191 557.621 379.409 558.045 374.711C558.057 374.604 558.07 374.498 558.082 374.392C558.975 365.391 560.294 353.917 560.239 346.011C560.193 340.776 559.504 341.912 559.085 339.669C558.279 335.348 559.78 327.726 559.991 326.693C560.003 326.656 560.209 331.148 560.521 328.746C561.21 327.34 559.994 326.743 559.991 326.693C560.162 326.009 560.047 317.064 559.785 315.319C559.663 314.374 559.069 314.941 559.016 314.442C558.802 312.428 558.569 310.403 558.311 308.437C557.284 300.557 555.819 292.787 553.885 285.027C553.467 283.346 553.001 281.637 552.508 279.918C552.458 279.715 553.22 279.808 553.09 279.329C551.271 272.653 548.843 268.729 546.268 263.547C543.668 258.361 542.033 254.073 541.778 250.434C540.762 248.275 539.69 245.519 538.723 242.907C537.904 240.697 537.173 238.599 536.625 237.028C535.419 233.583 533.965 233.695 533.81 233.419C529.564 225.969 527.596 221.002 524.113 213.826C523.685 212.926 523.121 211.958 522.409 210.922C520.104 207.412 513.029 200.203 509.55 195.669C508.297 194.098 507.364 192.715 506.506 191.369C505.633 189.992 504.695 188.64 503.351 187.109C503.021 186.735 502.856 187.503 502.744 187.399C499.617 184.667 501.981 185.261 501.647 184.431C500.371 181.442 499.47 179.565 495.372 176.038C494.418 175.21 490.368 174.265 488.648 172.933C486.395 171.188 487.71 171.288 485.28 169.559C485.07 169.417 484.825 169.803 483.397 168.693C482.998 168.385 482.592 168.079 482.185 167.778C475.961 163.074 468.979 159.47 461.209 157.65C460.865 157.566 460.524 157.483 460.187 157.399C458.879 157.07 460.365 158.225 458.479 157.756C449.705 155.397 441.332 153.375 433.11 152.187C431.124 151.881 432.429 151.497 432.01 151.295C429.398 150.066 425.406 151.148 424.783 151.138C420.953 151.051 417.31 150.951 413.78 150.847C403.131 150.544 393.414 149.812 381.474 150.146C380.605 150.171 373.917 151.59 370.945 150.327C370.744 150.243 367.792 148.948 365.19 149.827C365.029 149.883 366.865 150.543 363.658 150.478C360.458 150.413 355.301 150.875 350.915 150.201C349.518 149.989 346.196 148.744 342.107 149.866C341.963 149.906 340.213 150.578 338.28 151.029C336.362 151.457 334.303 151.665 333.128 150.923C332.747 150.669 333.093 148.981 328.107 149.966C327.15 150.156 328.899 150.494 326.383 150.784C322.536 151.236 317.375 150.846 312.818 151.732C312.008 151.891 308.71 153.136 306.251 152.528C305.858 152.435 306.518 151.788 305.232 151.877C304.163 151.956 303.124 152.095 302.087 152.297C296.253 153.451 290.346 154.862 284.489 155.735C281.97 156.111 283.061 154.958 280.418 155.251C277.775 155.543 272.502 156.388 269.884 157.359C267.258 158.332 270.515 159.133 266.487 160.096C261.931 161.19 257.364 162.206 252.899 163.223C241.19 165.831 230.091 167.804 220.016 172.142C218.877 172.629 217.771 173.176 216.683 173.792C214.723 174.96 216.593 174.348 213.791 176.255C209.834 179.028 204.929 183.698 199.929 188.903C191.675 197.492 182.672 206.238 177.207 211.246C170.258 217.831 177.611 208.321 172.586 213.633C170.158 216.251 169.709 220.163 169.432 220.81C169.321 221.043 169.214 221.272 169.109 221.499C164.945 229.7 160.877 233.865 156.905 240.344C156.057 241.712 157.496 240.774 156.771 241.932C154.31 245.883 151.475 249.804 149.476 253.551C148.592 255.23 149.215 255.171 148.408 256.664C147.359 258.641 146.457 260.462 145.699 262.173C144.996 263.813 144.286 265.464 143.519 267.209C143.363 267.566 143.505 264.886 142.541 267.953C140.988 272.922 138.849 279.25 137.41 285.475C136.975 287.318 138.118 287.777 135.979 291.395C135.709 291.845 135.252 291.483 134.828 292.168C134.587 292.517 134.374 293.258 134.479 294.866C134.399 295.456 135.056 302.371 133.678 306.176C133.297 307.137 131.879 309.586 131.806 311.844C131.799 312.152 132.579 311.001 132.424 312.875C132.186 315.621 131.836 318.414 131.392 321.242C130.993 324.296 130.723 328.484 130.61 332.172C130.562 333.902 131.374 331.376 131.287 333.943C131.053 341.01 130.667 349.9 130.446 356.876C130.363 359.427 129.816 357.663 129.756 357.847C128.78 360.872 130.112 362.65 130.197 363.637C130.722 369.862 130.23 374.579 130.619 380.317C130.727 381.902 131.307 380.751 131.375 381.064C132.06 384.286 130.83 381.912 130.8 383.99C130.784 385.17 130.789 386.372 130.813 387.612C130.922 392.53 131.108 397.782 131.324 402.385C131.437 404.47 132.066 402.112 132.165 403.955C132.326 406.71 132.562 408.928 133.134 411.065C135.44 419.678 137.121 428.558 139.39 435.674C139.979 437.444 139.043 436.551 139.063 436.961C139.077 437.209 139.111 437.462 139.162 437.712C139.85 440.692 142.219 443.827 142.672 444.659C144.922 448.792 145.144 450.654 146.796 454.413C148.732 458.799 150.753 463.445 152.879 468.035C157.082 476.867 163.783 486.305 169.854 495.053C171.764 497.746 176.241 501.292 179.91 504.225C184.848 508.147 189.758 511.965 194.291 516.366C201.05 522.877 208.945 528.201 217.331 532.94C222.971 536.099 228.506 539.447 234.333 542.706C235.622 543.424 234.693 542.047 235.805 542.653C237.512 543.585 239.203 544.492 240.871 545.343C248.323 549.13 255.699 553.053 262.51 554.953C266.57 556.016 273.6 555.865 280.258 556.661C281.737 556.834 279.686 555.849 282.087 556.125C284.837 556.453 288.022 557.039 291.112 557.886C293.104 558.434 295.241 558.988 297.126 559.497C299.23 560.056 296.246 560.042 298.369 560.589C303.302 561.848 308.682 562.828 313.875 563.412C316.078 563.652 312.854 562.504 315.716 562.866C330.912 564.603 347.614 565.402 358.85 560.205C362.715 558.212 366.394 556.579 369.809 554.832C370.95 554.239 372.737 554.932 374.794 553.186C374.726 552.738 374.441 552.353 374.26 551.949C376.186 550.569 377.862 549.113 379.136 547.601C385.103 540.612 390.968 533.645 390.43 528.613C389.955 518.123 388.79 507.99 385.46 498.578C383.556 493.097 380.476 487.371 377.57 481.168C377.021 479.984 377.272 482.368 376.204 480.059C375.445 478.398 374.701 476.694 374.006 474.926C371.067 467.439 356.947 453.512 363.868 436.178C364.192 435.385 364.587 435.261 365.088 434.854C365.594 434.554 366.214 433.975 366.904 431.907C367.123 431.269 369.207 425.252 369.677 423.481C369.733 423.241 368.643 424.143 369.51 422.104C371.868 416.703 375.54 409.912 382.696 406.018C390.609 402.438 396.584 401.524 403.542 400.68C405.604 400.485 403.512 401.428 404.961 401.306C415.106 400.439 427.4 400.825 436.543 406.942C442.321 411.195 439.37 410.772 441.283 413.951C441.425 414.21 442.336 415.182 443.021 416.196C443.366 416.684 443.685 417.242 443.839 417.887C444.009 418.519 443.863 419.234 443.689 419.31C443.219 419.588 442.819 419.34 442.399 419.184C441.979 419.012 441.513 418.956 441.071 419.046C440.164 419.182 439.462 419.884 438.517 419.959C438.466 419.951 438.387 419.886 438.297 419.585C438.214 419.311 438.113 418.58 438.453 417.77C438.793 416.967 439.296 416.606 439.441 416.496C439.611 416.376 439.577 416.398 439.489 416.414C439.302 416.457 438.914 416.532 438.836 416.455C438.793 416.417 438.825 416.341 438.927 416.223C439.02 416.109 439.218 415.939 439.261 415.794C439.26 415.783 439.303 415.74 439.203 415.761C439.117 415.828 438.756 415.749 437.902 416.917C437.497 417.496 437.212 418.504 437.243 419.208C437.258 419.926 437.411 420.331 437.485 420.562C437.653 421.007 437.617 420.962 437.512 420.935C437.137 420.629 436.798 420.396 436.587 420.305C436.079 420.092 436.202 421.203 435.305 420.686C434.409 420.19 433.982 419.006 432.436 418.296C430.859 417.655 431.125 418.6 428.229 417.221ZM530.971 221.652C530.053 218.353 527.695 218.995 529.828 221.973C529.933 222.116 531.019 221.821 530.971 221.652ZM367.913 430.515C369.946 426.298 369.915 422.736 367.913 425.664C366.007 428.762 367.319 431.843 367.913 430.515ZM366.191 477.086C366.253 471.647 362.847 470.699 364.257 476.944C364.36 477.311 366.207 477.416 366.191 477.086ZM427.216 406.262C427.261 406.282 429.98 407.24 430.048 407.261C431.802 407.064 426.26 405.083 427.216 406.262ZM394.216 513.331C394.117 513.113 393.952 512.863 393.738 512.609C392.426 511.103 390.094 508.967 390.838 510.61C391.184 511.358 392.213 512.5 393.123 513.222C393.959 513.872 394.614 514.276 394.216 513.331ZM388.4 144.028C388.349 143.991 386.386 143.937 386.422 144.14C386.552 144.79 389.278 144.637 388.4 144.028ZM363.839 565.453C364.249 565.492 364.703 565.424 365.182 565.303L365.066 565.346C375.533 562.789 381.437 564.692 369.863 566.636C367.669 567.042 374.395 564.777 371.555 565.108C369.282 565.379 367.265 565.99 365.778 566.885C365.754 566.896 365.681 566.923 365.655 566.931C364.5 567.523 362.398 567.582 361.124 566.464C359.843 565.441 359.147 564.063 358.722 562.54C358.602 562.026 359.557 563.24 360.83 564.295C361.463 564.821 362.198 565.25 362.774 565.383C363.349 565.525 363.73 565.435 363.854 565.45C363.849 565.451 363.844 565.452 363.839 565.453ZM532.674 218.631C532.673 218.554 531.471 216.119 531.413 216.078C530.072 215.115 532.489 220.01 532.674 218.631ZM274.344 149.953C274.184 149.916 267.996 151.132 267.806 151.237C264.84 153.119 277.345 150.664 274.344 149.953ZM559.643 395.545C559.442 398.037 558.682 400.722 557.538 402.662C557.256 403.162 556.936 403.604 556.59 403.974C556.793 403.502 556.981 403.021 557.15 402.533C557.957 400.22 558.795 397.885 559.643 395.545Z" fill="white"/>
<path d="M240.667 433.437C239.185 435.169 236.928 437.01 235.205 438.275C234.665 438.673 234.609 438.133 234.223 438.396C233.473 438.907 233.046 439.634 232.315 440.11C232.071 440.268 231.83 439.548 231.584 439.726C230.241 440.702 229.367 441.932 228.296 443.048C227.465 443.914 226.705 444.801 226.019 445.723C223.803 448.656 222.904 456.001 222.663 462.06C222.632 462.733 222.634 463.366 222.675 463.891C222.712 464.483 222.795 464.943 222.749 465.013C222.729 465.059 222.651 465.05 222.697 465.148C222.74 465.242 222.951 465.431 223.349 465.691C224.276 466.305 225.256 466.841 226.245 467.213C226.555 467.328 226.635 466.712 226.712 466.695C227.91 466.443 227.107 467.378 227.629 467.794C229.707 469.436 232.455 470.56 234.956 471.228C236.023 471.511 235.384 470.034 236.202 471.028C236.26 471.096 235.785 471.591 236.047 471.756C236.642 472.13 237.914 472.462 238.406 472.689C239.351 473.128 239.517 473.179 240.445 473.516C241.717 473.985 243.133 474.826 244.567 475.224C244.875 475.307 244.712 474.557 245.225 474.638C245.74 474.717 246.982 475.273 247.352 475.594C247.719 475.912 247.341 476.301 247.371 476.439C247.448 476.82 247.712 477.008 248.038 477.093C248.637 477.24 249.412 476.871 249.53 476.89C252.47 477.344 254.63 478.304 257.149 477.679C259.022 477.195 260.743 475.876 262.354 474.574C263.847 473.407 264.977 472.347 267.038 470.751C267.426 470.486 267.775 470.175 268.081 469.794C268.204 469.64 267.484 469.326 267.617 469.151C269.004 467.331 269.692 464.354 270.143 460.987C270.189 460.646 270.86 461.076 270.944 460.728C271.484 458.632 272.252 454.796 269.156 454.047C269.001 452.574 268.714 450.779 268.944 449.319C269.09 448.377 270.004 449.029 269.431 448.049C269.302 447.83 268.772 448.299 268.625 447.959C268.006 446.533 267.731 444.854 266.969 443.476C266.812 443.195 266.296 443.443 266.172 443.389C265.169 442.93 266.097 441.329 266.108 441.034C266.168 439.368 265.752 438.175 265.317 436.829C265.211 436.511 265.088 436.208 264.954 435.895C264.827 435.606 264.288 436.25 264.149 436.011C263.444 434.812 262.506 433.845 261.088 432.743C260.772 432.5 261.385 432.08 261.241 431.931C260.555 431.276 259.903 432.338 259.187 431.792C259.028 431.678 259.313 431.191 259.3 431.122C259.091 430.033 258.181 431.167 258.039 431.152C256.925 431.045 256.137 430.434 255.159 429.688C255.03 429.388 254.72 429.12 254.244 429.244C254.118 429.282 254.454 429.95 254.133 430.018C252.804 430.293 250.712 431.57 248.085 432.56C246.932 432.918 245.7 433.744 244.539 434.815C244.124 435.204 243.953 434.567 243.882 434.552C242.695 434.425 243.567 435.567 243.511 435.742C242.994 437.162 241.301 437.973 242.31 439.633C242.288 439.672 242.265 439.71 242.243 439.749C240.21 444.618 241.44 452.56 240.262 459.25C240.249 459.339 239.572 459.214 239.55 459.391C239.284 461.536 240.306 461.077 241.663 462.392C242.004 462.724 240.541 463.893 240.436 464.001C240.046 464.375 239.026 464.087 238.954 464.208C238.605 464.833 239.736 464.921 240.667 465.205C241.236 465.357 241.726 465.536 241.781 465.901C241.78 465.934 241.16 465.889 241.113 465.985C240.968 466.292 241.256 466.504 241.116 466.801C240.791 467.425 239.389 468.407 240.739 468.837C240.901 468.846 242.391 467.779 242.629 468.155C242.688 468.237 242.875 468.408 243.177 468.574C243.47 468.742 243.914 468.903 244.118 469.02C244.534 469.255 244.081 469.759 244.103 469.792C244.254 469.944 244.387 470.077 244.495 470.199C245.237 470.98 244.802 471.278 245.244 472.42C245.748 473.736 246.144 470.951 246.519 470.713C246.892 470.476 247.857 471.357 248.086 471.638C248.311 471.918 247.893 472.222 248.109 472.4C249.552 473.561 249.093 471.181 249.709 470.852C251.144 470.064 251.704 472.283 252.832 472.671C253.132 472.774 252.955 472.267 253.233 472.265C254.328 472.258 254.922 472.995 256.186 472.5C256.414 472.423 257.386 471.23 257.96 472.134C258.049 472.265 257.802 472.789 258.254 472.895C258.914 473.063 260.148 473.027 260.718 472.642C261.12 472.367 260.357 471.74 260.931 471.799C261.195 471.809 260.977 472.461 261.495 472.416C261.57 472.407 261.656 472.386 261.748 472.353C262.38 472.132 263.237 471.434 263.544 471.099C263.913 470.711 263.239 470.464 263.241 470.402C263.248 470.057 263.574 469.167 263.611 469.101C265.864 465.883 267.23 461.302 266.499 456.719C266.44 456.36 265.781 456.662 265.765 456.608C265.361 455.417 267.267 456.205 267.773 455.251C266.41 455.538 266.606 454.993 266.33 454.139C266.195 453.728 265.698 454.037 265.638 454.007C264.74 453.516 265.706 452.928 265.898 452.774C266.607 452.223 265.602 451.941 266.069 451.564C266.528 451.179 267.424 451.69 267.244 450.834C266.71 450.698 265.565 451.574 265.23 450.987C264.006 448.803 263.731 444.21 263.138 442.331C262.568 440.451 262.236 439.916 261.946 438.83C261.92 438.735 261.895 438.652 261.87 438.577C261.977 438.523 261.68 438.565 261.571 438.814C261.427 439.046 261.372 439.351 261.043 439.576C260.298 440.103 260.251 437.743 260.023 437.259C259.735 436.797 259.642 437.354 259.348 437.141C259.041 436.935 259.472 436.458 258.874 436.514C258.542 436.547 258.012 436.984 257.663 437.485C257.361 437.899 257.206 438.341 257.245 438.593C257.474 439.767 258.508 440.485 257.405 440.727C257.337 440.746 257.145 440.114 256.899 440.218C254.897 441.099 253.629 443.362 252.538 445.536C252.383 445.841 251.808 445.35 251.709 445.531C250.724 447.446 252.06 447.034 253.096 448.356C251.46 447.764 250.27 448.17 250.016 449.78C249.872 450.733 250.644 450.68 251.096 451.344C251.233 451.543 250.645 452.154 250.986 452.31C252.102 452.82 253.443 452.335 252.792 453.853C252.762 453.921 252.148 453.646 252.09 453.885C251.719 455.428 252.919 455.692 252.982 457.38C253.033 458.701 252.223 461.053 252.07 462.582C250.879 462.534 250.574 463.064 250.824 463.627C250.98 463.965 251.375 464.287 251.904 464.435C251.904 465.273 252.175 466 252.371 466.651C252.444 466.881 251.895 467.066 251.86 467.124C251.617 467.618 251.87 467.786 252.152 467.775C252.439 467.77 252.765 467.61 252.844 467.647C252.915 467.683 252.984 467.718 253.053 467.754C254.136 468.29 255.571 469.082 256.371 468.55C256.641 468.378 256.86 468.124 256.988 467.788C257.03 467.707 256.203 466.668 257.126 467.142C257.207 467.154 257.232 468.007 257.828 467.458C258.414 466.963 259.926 465.577 259.69 464.05C259.647 463.67 258.778 462.663 259.74 462.181C259.871 462.114 260.231 462.287 260.468 462.195C261.221 461.897 259.918 461.436 261.136 461.112C262.355 460.783 263.371 459.722 262.673 458.169C262.653 458.119 261.599 457.702 261.638 457.247C261.704 456.522 261.957 455.48 261.955 454.713C261.954 454.345 261.282 454.577 261.27 454.513C260.899 452.068 261.428 450.315 261.523 447.653C261.542 447.162 260.532 445.847 261.175 444.854C261.876 443.765 265.252 444.541 264.256 442.219C264.089 441.839 263.251 441.455 262.474 441.032C261.92 440.655 261.374 440.327 261.05 439.986C260.697 439.624 260.695 439.296 260.571 438.382C258.916 437.524 257.5 438.235 256.321 438.838C254.487 439.863 252.983 441.673 252.685 443.822C252.657 443.987 253.6 444.816 253.493 445.121C253.325 445.59 252.73 445.728 252.61 446.083C252.1 447.584 252.41 449.069 252.264 450.549C252.213 451.116 251.656 450.896 251.608 451.586C251.566 452.28 252.307 452.727 251.973 453.658C251.721 454.359 250.239 455.149 250.13 456.124C251.626 456.056 251.635 456.702 252.138 457.797C252.235 458.007 252.731 457.724 252.803 457.819C253.111 458.206 252.723 458.635 253.058 458.998C253.138 459.086 253.646 459.033 253.741 459.101C254.432 459.58 253.832 460.527 253.523 460.943C253.462 460.999 253.414 461.041 253.387 461.066C253.055 461.371 253.152 461.593 253.257 461.625C253.374 461.665 253.436 461.6 253.637 461.742C253.856 461.87 253.862 462.031 253.821 462.195C253.786 462.351 253.742 462.519 254.14 462.519C255.415 462.445 256.546 461.551 257.378 460.59C257.618 460.306 257.836 460.017 258.033 459.734C258.363 459.238 257.564 459.216 257.599 459.136C258.053 458.135 259.107 457.161 257.916 456.256C260.265 456.269 259.47 455.874 258.878 455.315C258.564 455.005 258.312 454.646 258.582 454.126C258.643 454.019 260.316 453.867 260.528 454.45C260.64 454.765 260.506 455.15 260.398 455.536C260.307 455.862 260.233 456.208 260.328 456.591C260.4 456.752 261.593 458.284 261.596 458.521C261.785 460.14 259.396 459.214 259.271 459.19C257.769 459.104 258.34 460.763 258.211 461.291C258.205 461.318 258.199 461.342 258.191 461.36C257.324 463.013 256.35 463.649 254.164 464.542C252.697 465.112 249.854 465.641 248.79 463.241C248.511 462.529 248.469 462.047 248.456 461.611C248.708 459.948 250.289 459.059 248.362 457.505C247.911 457.131 246.165 457.687 247.449 456.073C247.528 455.966 248.736 454.79 247.908 454.175C247.803 454.097 247.286 454.118 247.238 454.01C246.934 453.283 247.338 452.783 247.146 451.97C246.954 451.156 246.693 450.137 246.945 449.178C247.094 448.594 248.137 447.95 248.407 447.712C249.176 447.045 248.229 446.018 249.142 445.69C250.055 445.402 251.082 446.531 251.871 445.519C250.577 445.15 249.267 444.701 247.981 444.273C248.81 441.31 250.765 438.139 253.879 435.88C254.24 435.619 253.544 435.324 253.809 435.023C253.83 435.001 253.856 434.979 253.888 434.956C254.983 434.201 256.134 433.774 257.729 433.597C259.215 433.415 261.888 433.691 263.849 435.55C265.792 437.418 266.402 439.24 266.869 440.608C267.053 440.979 267.218 441.369 267.318 441.75C265.853 442.607 266.528 444.295 266.483 445.584C266.468 446.036 266.055 446.036 265.944 446.362C265.532 447.593 266.85 446.943 267.086 447.258C268.085 448.632 265.022 448.928 265.168 450.582C265.175 450.666 266.851 451.703 266.956 451.858C267.644 452.812 266.389 452.032 266.28 452.637C266.076 453.746 265.689 454.499 266.142 455.817C266.276 456.195 267.269 457.173 266.434 457.894C266.325 457.988 265.787 457.901 265.75 457.979C265.129 459.375 266.815 459.544 267.301 460.484C267.787 461.419 266.405 462.655 266.018 462.858C265.027 463.415 265.746 462.249 265.663 462.192C264.719 461.586 264.753 462.568 264.518 463.282C262.862 463.064 262.744 464.035 264.273 464.021C264.443 464.014 264.415 463.415 264.518 463.282C266.003 464.22 265.907 465.626 263.986 466.452C263.067 466.817 262.592 465.944 262.047 467.81C261.743 468.658 262.921 468.931 262.674 469.888C262.263 471.423 260.3 472.898 258.24 473.411C256.933 473.793 255.952 473.729 255.113 473.734C254.139 473.701 255.021 474.43 254.327 474.407C252.458 474.263 251.325 473.312 249.671 472.402C249.517 472.311 249.476 473.078 248.993 472.746C248.983 472.738 248.973 472.731 248.962 472.722C245.785 470.343 245.131 466.04 245.383 463.508C245.41 463.142 245.43 462.769 245.441 462.387C245.472 461.204 245.168 459.054 245.296 457.798C245.504 455.615 246.638 452.974 246.637 451.024C246.641 449.753 245.96 449.93 245.591 449.316C244.873 448.097 246.804 446.392 247.106 446.209C247.11 446.21 247.025 447.363 247.483 446.834C248.245 446.641 247.106 446.225 247.106 446.209C247.276 446.071 248.036 443.824 248.11 443.313C248.133 443.036 247.494 442.971 247.52 442.828C248.049 439.528 250.399 435.206 254.746 433.364C254.82 433.34 255.037 434.014 255.203 433.954C255.499 433.85 255.777 433.745 256.043 433.639C257.748 433.016 258.548 431.938 261.004 431.364C261.912 431.2 263.038 431.147 264.515 431.7C265.969 432.191 267.776 433.806 268.345 435.499C268.372 435.971 268.27 436.496 267.977 436.966C268.571 437.953 268.619 439.58 268.607 440.519C268.587 441.429 269.915 441.126 269.967 441.191C271.544 443.214 271.199 444.807 271.684 447.263C271.915 448.429 272.596 450.719 272.948 452.005C273.234 453.018 273.006 453.689 273.323 454.63C273.365 454.758 273.951 454.556 273.979 454.593C274.822 455.618 273.289 455.243 273.05 455.494C272.169 456.401 271.708 456.903 272.22 458.265C272.338 458.569 274.493 459.485 274.609 460.14C274.753 460.969 273.999 460.632 274.149 461.506C274.16 461.581 274.635 461.588 274.58 462.132C274.322 464.656 273.585 467.525 272.414 470.391C272.247 470.785 273.16 470.571 272.914 471.167C271.806 473.949 269.3 477.046 266.376 478.473C265.665 478.824 265.804 478.112 265.58 478.07C265.393 478.032 265.224 478.034 265.069 478.064C263.852 478.419 262.983 479.745 262.731 479.841C256.502 481.889 254.026 479.598 250.06 479.659C249.854 479.66 247.995 480.799 247.559 479.425C247.529 479.333 247.114 477.937 246.346 478.672C246.298 478.718 246.578 479.454 245.864 479.233C245.149 479.012 243.898 479.19 243.079 478.26C243.001 478.173 242.907 477.986 242.781 477.787C242.396 477.292 241.805 476.747 240.471 477.019C240.41 477.031 239.565 477.371 238.521 477.259C237.491 477.169 236.307 476.529 236.367 475.507C236.412 475.133 237.562 474.188 235.447 472.901C235.047 472.616 235.21 473.551 234.33 472.633C232.972 471.146 232.776 468.929 231.803 467.405C231.68 467.215 231.022 466.632 230.907 465.934C230.862 465.726 230.921 465.503 231.177 465.282C231.306 465.171 231.882 465.321 231.92 464.978C232.107 463.344 231.625 461.672 231.932 460.003C232.04 459.417 232.964 459.668 233.179 459.049C233.394 458.435 233.579 457.21 233.142 456.584C232.705 455.962 231.276 456.713 231.131 455.747C230.518 451.545 231.332 447.386 231.888 442.843C231.98 442.149 231.395 442.683 231.51 441.633C231.749 440.159 231.625 438.721 232.965 435.416C234.23 432.468 236.446 429.069 238.914 427.618C241.964 425.936 239.374 429.27 241.436 427.876C242.38 427.268 242.671 425.103 242.99 424.872C243.468 424.492 243.977 424.183 244.497 423.937C245.299 423.472 246.525 423.33 248.021 422.424C248.415 422.192 247.72 421.756 248.072 421.561C249.298 420.898 251.068 420.483 253.304 420.194C254.327 420.09 254.123 419.568 255.212 419.645C256.479 419.759 257.784 420.13 258.908 420.732C258.922 420.879 259.198 421.172 259.534 421.546C259.596 421.612 258.894 422.071 259.513 422.293C260.568 422.666 262.058 423.605 263.887 423.848C264.43 423.925 264.965 422.832 265.715 424.137C265.877 424.427 264.873 425.473 266.76 425.151C267.015 425.018 270.376 425.314 270.657 427.237C270.735 427.721 270.466 429.172 271.062 429.685C271.151 429.759 271.407 429.013 271.857 429.535C273.002 430.899 273.785 432.578 274.327 434.217C274.443 434.525 274.594 434.904 274.754 435.235C274.917 435.578 275.384 434.843 275.61 435.368C276.228 436.785 276.697 438.803 276.975 440.43C277.078 441.037 276.429 440.793 276.385 440.853C275.657 441.806 277.033 441.827 277.175 442.038C278.029 443.314 277.745 444.586 278.252 445.871C278.391 446.231 278.928 445.81 279.001 445.87C279.729 446.504 278.492 446.211 278.495 446.725C278.501 448.174 278.902 449.688 279.266 451.1C279.4 451.619 279.995 450.886 280.107 451.357C280.777 454.147 281.14 457.25 280.821 460.326C280.758 460.908 280.19 460.553 280.065 460.676C279.192 461.487 280.377 462.715 280.475 463.023C280.933 464.382 280.388 464.875 280.307 466.104C280.118 469.945 278.02 475.712 273.365 479.003C273.039 479.155 271.414 480.675 270.144 481.71C265.125 486.082 257.756 488.594 250.624 487.315C250.165 487.241 250.498 488.058 250.091 487.999C247.893 487.655 245.899 486.968 244.068 486.146C242.353 485.367 240.492 484.613 238.486 484.017C238.2 483.931 238.363 484.74 237.898 484.625C236.942 484.394 235.765 483.937 234.873 483.383C234.438 483.114 235.272 482.767 234.829 482.508C233.798 481.902 232.613 481.429 231.409 481.11C230.896 480.975 231.398 481.927 230.748 481.698C226.442 480.187 221.915 478.514 217.886 475.23C217.78 475.142 217.661 475.046 217.528 474.939C217.155 474.627 217.59 473.246 216.365 472.608C216.02 472.848 215.71 473.212 215.385 473.506C213.118 471.674 211.887 468.711 211.531 466.883C211.116 464.94 211.093 463.435 211.112 462.009C211.244 457.376 211.701 452.803 212.725 447.817C212.794 447.495 211.916 447.903 212.05 447.27C212.634 444.734 213.125 442.11 215.244 438.952C215.95 437.989 216.747 437.095 217.645 436.302C217.93 436.052 218.9 437.021 219.387 436.066C219.469 435.892 220.329 434.561 220.373 434.065C220.376 433.994 219.703 433.795 220.023 433.398C221.899 431.095 224.09 429.125 226.285 427.533C226.64 427.278 226.783 428.086 227.04 427.908C228.856 426.648 230.172 424.68 232.043 423.715C233.298 423.071 233.763 424.257 235.087 424.576C235.274 424.622 235.891 424.046 236.395 424.493C237.667 425.612 238.68 427.216 240.07 428.375C240.368 428.628 240.898 427.507 241.072 428.66C241.081 428.74 240.706 429.551 240.78 429.926C240.832 430.184 241.498 430.487 241.485 430.895C241.474 431.302 240.837 431.124 240.721 431.701C240.607 432.281 241.301 432.692 240.667 433.437ZM268.428 444.64C268.018 445.571 270.354 445.037 269.563 444.361C269.522 444.33 268.448 444.592 268.428 444.64ZM252.655 439.619C254.201 439.344 253.803 437.669 252.527 437.765C251.188 437.983 252.155 439.76 252.655 439.619ZM250.151 450.776C251.039 449.631 247.67 449.176 248.282 450.594C248.317 450.676 250.1 450.846 250.151 450.776ZM232.913 427.154C232.942 427.171 233.403 426.768 233.39 426.737C233.094 425.966 232.178 426.766 232.913 427.154ZM251.625 461.083C252.032 460.667 251.379 459.695 250.867 460.213C250.532 460.551 250.908 461.268 251.333 461.232C251.347 461.231 251.361 461.229 251.375 461.226C251.459 461.21 251.544 461.165 251.625 461.083ZM252.679 473.829C252.673 473.792 252.243 473.69 252.22 473.89C252.14 474.535 252.785 474.453 252.679 473.829ZM258.939 448.95C259.72 451.664 257.032 453.376 256.845 450.971C256.781 450.506 257.96 451.706 258.058 451.072C258.207 449.823 256.299 449.729 256.738 448.331C256.814 448.053 258.902 448.774 258.944 448.953C258.943 448.952 258.941 448.951 258.939 448.95ZM265.792 445.867C265.766 445.89 265.903 446.486 265.935 446.488C266.757 446.606 266.481 445.398 265.792 445.867ZM239.536 457.67C239.601 457.634 239.612 456.236 239.55 456.194C238.281 455.502 238.254 458.346 239.536 457.67ZM252.017 462.605C252.396 462.945 252.601 463.316 252.587 463.665C252.575 463.941 252.364 464.187 251.904 464.432C251.911 464.177 251.921 463.917 251.94 463.651C251.963 463.301 251.984 462.952 252.017 462.605Z" fill="white"/>
<path d="M216.179 317.719C215.2 318.501 213.893 319.193 212.883 319.774C212.567 319.956 212.39 319.533 212.155 319.654C211.691 319.904 211.553 320.388 211.104 320.654C210.952 320.744 210.54 320.174 210.389 320.284C209.554 320.913 209.209 321.827 208.627 322.734C208.617 322.75 208.606 322.767 208.596 322.783C206.082 326.219 207.152 332.816 209.867 338.627C210.743 340.584 211.616 343.205 213.155 344.933C213.333 345.132 213.725 344.664 213.793 344.677C214.846 344.877 213.734 345.365 213.909 345.876C214.599 347.883 216.084 349.786 217.527 350.9C218.128 351.346 218.413 350.001 218.46 350.942C218.464 351.005 217.924 351.362 218.011 351.53C218.079 351.701 218.405 351.952 218.267 351.853C218.26 351.849 218.44 351.914 218.538 351.971C218.979 352.219 219.116 352.244 219.733 352.375C220.6 352.557 221.754 352.998 222.848 352.933C223.08 352.917 222.82 352.256 223.194 352.172C223.566 352.089 224.538 352.191 224.874 352.352C225.2 352.515 225.043 353.014 225.099 353.132C225.574 354.126 226.771 352.793 226.919 352.76C229.666 352.212 232.061 352.907 234.69 352.78C236.681 352.681 238.806 352.288 240.704 352.178C240.982 352.162 241.257 352.151 241.529 352.143C242.25 352.135 242.829 352.09 243.209 351.997C243.591 351.894 243.761 351.824 243.948 351.496C243.989 351.417 243.296 351.106 243.33 351.031C243.53 350.643 243.819 349.444 244.053 348.082C244.306 346.687 244.574 345.297 244.886 343.896C244.949 343.611 245.597 344.008 245.699 343.722C246.335 342.018 247.51 338.977 244.515 338.253C244.517 337.102 244.42 335.748 244.76 334.636C244.975 333.922 245.828 334.36 245.328 333.647C245.213 333.486 244.665 333.878 244.541 333.634C244.029 332.636 243.787 331.433 243.061 330.847C242.914 330.733 242.457 331.073 242.348 331.091C241.839 331.176 241.947 330.896 242.107 330.596C242.092 330.234 242.136 329.886 242.105 329.792C241.539 328.084 240.491 327.417 239.426 326.349C239.178 326.101 238.943 326.934 238.688 326.718C237.369 325.592 236.1 324.376 235.004 323.068C234.76 322.776 235.432 322.483 235.335 322.316C234.891 321.584 234.008 322.45 233.565 321.793C233.469 321.656 233.869 321.261 233.882 321.195C234.071 320.147 232.951 321.017 232.842 320.977C231.408 320.478 231.372 318.778 230.002 318.206C229.84 318.141 229.822 318.942 229.391 318.725C228.568 318.316 227.735 317.896 226.896 317.467C227.013 317.476 226.517 317.321 225.807 317.453C225.106 317.562 224.253 317.831 223.503 318.139C223.297 318.219 223.087 318.314 222.879 318.42C222.534 318.605 222.388 318.033 222.33 317.997C221.301 317.551 222.047 318.753 222.009 318.871C221.608 319.85 220.055 320.271 221.156 321.708C218.551 325.941 218.936 331.725 217.394 337.13C217.377 337.201 216.708 337.065 216.676 337.207C216.288 338.913 217.335 338.596 218.623 339.684C218.947 339.955 217.431 340.844 217.322 340.929C216.915 341.221 215.91 340.963 215.832 341.059C215.228 341.864 218.516 341.617 218.565 342.636C218.561 342.669 217.948 342.563 217.892 342.653C217.716 342.93 217.971 343.188 217.778 343.463C217.33 344.087 215.744 344.423 216.742 345.29C216.872 345.398 218.721 345.086 218.707 346.002C218.704 346.157 218.732 346.53 218.762 346.937C218.788 347.364 218.864 347.744 218.841 347.893C218.803 348.154 218.186 348.213 218.164 348.232C217.757 349.283 217.318 349.147 216.734 350.357C216.367 351.718 218.231 349.569 218.52 349.414C218.674 349.339 218.73 349.491 218.819 349.712C218.902 349.932 219.027 350.214 219.079 350.351C219.187 350.625 218.839 350.918 218.978 351.096C220.084 352.219 219.766 349.844 220.157 349.463C220.497 349.079 220.758 349.166 221.077 349.425C221.545 349.816 222.07 350.597 222.63 350.669C222.879 350.701 222.636 350.249 222.843 350.183C223.649 349.922 224.283 350.477 225.113 349.685C225.261 349.555 225.68 348.166 226.405 348.909C226.511 349.015 226.455 349.572 226.844 349.579C227.425 349.592 228.427 349.373 228.932 348.996C229.303 348.719 228.526 348.102 229.136 348.152C229.409 348.172 229.161 348.806 229.664 348.802C230.168 348.802 231.269 348.31 231.68 348.102C232.09 347.898 231.594 347.411 231.61 347.356C231.637 347.268 231.708 347.155 231.795 347.038C231.966 346.758 232.18 346.44 232.215 346.417C234.563 344.924 236.885 341.726 237.194 338.016C237.218 337.725 236.511 337.797 236.508 337.752C236.386 336.741 238.053 337.805 238.764 337.186C237.377 337.084 237.692 336.709 237.625 335.986C237.59 335.638 237.035 335.763 236.984 335.725C236.23 335.145 237.307 334.909 237.53 334.834C238.35 334.568 237.445 334.123 237.988 333.935C238.528 333.738 239.271 334.332 239.305 333.626C238.821 333.403 237.498 333.832 237.318 333.306C236.89 332.067 237.137 330.215 237.326 328.582C237.388 328.349 237.431 328.325 237.492 328.289C237.552 328.249 237.475 328.13 237.334 328.075C236.934 327.915 236.433 327.939 236.069 327.961C235.684 327.988 235.367 328.019 234.922 328.021C233.302 328.072 234.104 328.877 233.309 329.573C232.515 330.294 232.21 327.906 231.91 327.469C231.603 327.036 231.618 327.585 231.349 327.383C231.079 327.182 231.348 326.719 230.894 326.77C230.431 326.821 229.627 328.098 229.683 328.65C229.792 329.82 230.728 330.719 229.516 330.756C229.446 330.758 229.413 330.1 229.154 330.136C228.551 330.226 227.952 330.362 227.342 330.506C226.014 330.799 224.765 331.379 223.519 332.003C223.274 332.126 223.022 331.437 222.87 331.508C221.282 332.318 222.517 332.808 222.915 334.271C221.77 332.98 220.596 332.617 219.773 333.764C219.305 334.451 220.023 334.743 220.233 335.432C220.3 335.632 219.59 335.868 219.865 336.117C220.715 336.852 221.946 337.026 221.366 337.69C221.321 337.749 221.266 337.812 221.201 337.879C221.157 337.923 220.641 337.51 220.529 337.679C219.809 338.763 220.857 339.372 220.546 340.627C220.3 341.598 219.122 343.014 218.916 344.072C216.979 343.815 217.343 345.12 218.722 345.427C218.71 345.832 218.778 346.248 218.84 346.655C218.853 346.785 218.863 346.894 218.878 347.05C218.898 347.186 218.403 347.459 218.362 347.506C218.097 347.949 218.334 348.064 218.576 347.991C218.827 347.927 219.105 347.71 219.169 347.724C220.242 347.99 221.254 348.772 222.564 348.793C222.925 348.797 223.294 348.741 223.674 348.591C223.739 348.565 224.024 347.248 224.334 348.28C224.358 348.351 223.717 348.889 224.509 349.035C225.289 349.183 226.814 350.009 227.936 349.349C228.221 349.194 228.802 348.075 229.398 348.877C229.48 348.986 229.437 349.379 229.561 349.583C229.982 350.23 230.009 348.857 230.559 349.949C231.118 351.038 232.25 351.746 233.264 350.652C233.296 350.619 233.295 349.504 233.644 349.416C234.213 349.277 235.081 349.207 235.655 348.957C235.928 348.838 235.489 348.295 235.532 348.264C237.136 347.154 238.584 346.988 240.475 345.93C240.825 345.738 241.137 344.331 242.192 344.427C243.136 344.565 244.404 346.748 244.973 346.618C245.34 346.439 245.752 346.103 246.082 345.584C246.548 344.869 246.099 343.563 245.484 342.73C245.185 342.299 244.871 341.966 244.685 341.693C244.475 341.409 244.518 341.218 244.379 340.655C244.359 340.542 244.343 340.414 244.327 340.268C241.329 339.344 238.85 339.403 236.371 339.395C236.278 339.404 235.489 340.364 235.164 340.174C235.084 340.127 235.021 340.065 234.97 339.996C234.731 339.676 234.799 339.248 234.639 339.055C233.85 338.038 233.043 337.059 232.764 335.825C232.667 335.359 233.253 335.38 233.157 334.84C233.065 334.302 232.263 334.086 232.47 333.278C232.628 332.667 234.016 331.83 234.018 331.009C232.547 331.301 232.482 330.763 231.838 329.988C231.712 329.843 231.271 330.177 231.187 330.119C231.135 330.086 231.098 330.05 231.071 330.012L232.256 330.307C232.343 330.3 231.993 330.388 232.218 330.635C232.281 330.7 232.789 330.753 232.872 330.797C233.586 331.085 232.534 331.966 232.361 332.164C231.688 332.841 232.394 333.009 232.179 333.5C231.969 334.001 231.475 333.399 231.396 333.958C231.235 335.116 231.617 336.489 231.823 337.578C231.909 338.016 232.513 337.577 232.541 337.637C232.9 338.501 232.376 339.553 233.807 339.79C230.487 341.098 234.253 340.266 233.808 341.702C233.771 341.813 232.163 342.245 231.851 341.902C231.539 341.561 231.937 340.882 231.457 340.415C231.345 340.307 229.673 339.892 229.56 339.812C228.682 339.195 231.085 338.573 231.211 338.506C232.552 337.734 230.722 337.187 230.559 336.977C229.811 336.004 229.956 335.013 229.406 334.137C229.052 333.561 227.438 333.766 227.401 333.205C227.354 332.429 227.702 331.75 228.035 331.045C228.205 330.69 228.362 330.33 228.526 329.841C228.722 329.363 228.772 328.658 229.645 327.572C231.538 325.924 233.981 326.405 234.66 328.821C234.859 329.054 235.154 329.281 235.583 329.51C236.078 329.762 237.746 329.033 236.672 330.638C236.607 330.747 235.535 331.889 236.418 332.205C236.529 332.245 237.037 332.145 237.095 332.215C237.473 332.682 237.133 333.096 237.436 333.556C237.738 334.015 238.156 334.465 238.113 334.889C238.085 335.141 237.287 335.733 237.12 335.93C236.871 336.199 237.037 336.273 237.153 336.283C237.274 336.301 237.335 336.258 237.04 336.547C236.526 337.199 235.281 337.758 235.407 338.601C236.28 337.577 237.143 336.498 237.913 335.385C237.871 335.357 237.824 335.33 237.774 335.305C237.503 335.209 237.682 335.467 238.291 335.595C238.89 335.738 239.771 335.791 240.886 335.778C241.184 335.775 240.889 335.045 241.223 335.026C242.664 335.017 244.367 335.415 246.972 336.862C246.99 336.872 247.008 336.883 247.026 336.894C249.886 339.035 249.911 341.426 250.01 342.931C250.015 344.538 249.615 346.008 248.683 347.306C247.863 347.483 247.024 347.933 246.013 348.358C245.884 348.065 245.266 348.779 244.691 349.115C244.372 349.303 244.14 348.963 243.842 349.023C242.721 349.253 243.925 350.045 243.818 350.393C243.293 351.902 241.437 349.457 240.239 350.292C240.19 350.332 240.144 352.255 240.051 352.416C239.552 353.439 239.646 351.988 239.096 352.138C238.075 352.404 237.303 352.327 236.356 353.197C236.087 353.451 235.575 354.709 234.68 354.139C234.564 354.064 234.465 353.528 234.387 353.517C233.024 353.335 233.388 354.982 232.719 355.708C232.044 356.432 230.671 355.422 230.415 355.104C229.711 354.296 230.842 354.681 230.861 354.587C231.106 353.522 230.319 353.808 229.71 353.77C229.479 352.116 228.689 352.267 229.073 353.734C229.12 353.895 229.584 353.705 229.71 353.77C229.329 355.451 228.241 355.726 227.22 354.183C226.744 353.455 227.208 352.647 225.801 352.887C225.155 352.984 225.327 354.15 224.713 354.413C223.712 354.829 222.625 354.295 221.617 353.89C221.179 353.719 220.744 353.566 220.302 353.509C219.755 353.432 220.122 354.178 219.729 354.14C218.648 354.013 217.862 353.285 216.474 352.756C216.34 352.7 216.309 353.456 215.867 353.192C214.45 352.392 212.657 350.382 212.304 348.043C212.081 346.487 212.153 344.926 212.323 343.36C212.436 342.011 212.645 339.754 213.11 338.678C213.646 337.363 214.664 336.189 215.319 335.174C215.686 334.544 216.024 333.96 216.252 333.401C216.748 332.24 216.066 332.132 216.003 331.402C215.913 329.925 218.465 329.403 218.793 329.446C218.796 329.444 218.168 330.355 218.811 330.155C219.549 330.396 218.783 329.461 218.793 329.446C219.004 329.406 220.726 328.07 221.021 327.743C221.17 327.548 220.696 327.121 220.784 327.027C221.954 325.804 223.383 324.834 224.914 324.186C225.665 323.844 226.663 323.47 227.703 323.206C227.747 323.203 227.943 323.877 228.041 323.861C229.426 323.658 229.972 322.548 231.032 321.683C232.089 320.822 233.305 320.706 234.387 321.742C235.453 321.406 237.448 321.718 239.105 322.592C240.64 323.447 241.825 322.92 242.037 323.015C244.292 324.577 244.864 327.05 244.901 328.293C244.965 329.396 244.602 330.379 244.494 331.771C244.422 332.753 244.515 334.719 244.547 335.83C244.58 336.706 244.2 337.189 244.285 338.021C244.296 338.134 244.911 338.112 244.93 338.149C245.504 339.18 244.109 338.505 243.818 338.648C242.754 339.164 242.193 339.442 242.379 340.669C242.424 340.939 244.295 342.252 244.256 342.829C244.206 343.552 243.555 343.075 243.502 343.836C243.495 343.901 243.951 344.036 243.772 344.48C242.939 346.529 241.582 348.79 239.656 350.98C239.385 351.279 240.296 351.403 239.89 351.857C238.78 353.086 237.223 354.281 235.459 355.01C234.74 355.287 233.989 355.518 233.24 355.669C232.802 355.754 232.857 355.165 232.711 355.057C231.832 354.402 231.557 355.967 231.426 356.042C228.454 357.798 225.527 357.368 221.638 358.089C221.568 358.102 221.348 358.268 221.043 358.438C220.45 358.801 219.131 359.119 218.498 358.142C218.401 358.038 217.697 356.646 216.358 357.068C216.257 357.079 216.851 358.051 215.446 357.39C214.079 356.818 211.229 355.012 210.919 352.728C210.763 351.981 211.427 350.355 210.178 349.252C210.125 349.211 209.173 348.589 208.766 347.858C208.498 347.57 208.463 347.249 209.103 347.01C209.359 346.917 211.044 346.848 210.109 345.977C209.928 345.808 209.577 346.168 209.307 345.703C208.891 344.994 209.281 343.994 208.486 343.119C208.345 342.972 207.168 342.332 208.018 341.753C208.151 341.663 208.72 341.804 208.773 341.516C209.029 340.145 208.631 338.714 209.034 337.319C209.177 336.826 210.084 337.089 210.336 336.584C210.588 336.079 210.853 335.067 210.462 334.514C210.07 333.957 208.591 334.484 208.516 333.655C208.214 330.02 209.461 326.451 210.605 322.662C210.782 322.094 210.14 322.442 210.386 321.57C211.058 318.691 213.677 312.118 218.44 310.412C218.567 310.368 218.697 310.326 218.817 310.294C221.714 309.649 219.019 311.936 220.97 311.274C221.841 311.006 222.258 309.049 222.54 308.902C224.716 307.749 227.279 307.563 231.046 309.195C231.166 309.248 231.291 309.297 231.42 309.342C231.735 309.449 231.759 308.693 232.025 308.793C232.943 309.132 233.695 309.892 234.526 310.311C234.899 310.498 235.1 310.01 235.413 310.243C236.164 310.798 236.746 311.426 237.222 312.329C237.264 312.411 236.452 312.651 236.998 313.043C237.885 313.681 238.685 314.846 239.969 315.207C240.35 315.312 241.105 314.383 241.217 315.528C241.24 315.769 240.172 316.743 241.666 316.368C241.909 316.297 244.203 316.051 244.054 317.373C244.017 317.72 243.6 318.925 244.039 319.082C244.103 319.101 244.366 318.47 244.673 318.67C245.751 319.39 246.647 320.37 247.688 321.156C247.968 321.366 248.087 320.534 248.489 320.864C249.192 321.441 249.88 322.221 250.473 323.007C251.269 323.966 251.743 324.832 252.089 325.567C252.421 326.306 251.664 326.088 251.644 326.172C251.218 327.409 252.568 327.233 252.761 327.469C253.878 328.865 253.637 330.188 254.142 331.443C254.277 331.79 254.818 331.381 254.89 331.439C255.61 332.07 254.379 331.778 254.37 332.271C254.332 333.653 254.615 335.044 254.847 336.297C254.932 336.757 255.592 336.148 255.659 336.568C256.068 339.06 256.062 341.625 255.581 343.944C255.489 344.381 254.94 344.083 254.809 344.17C253.894 344.748 255.056 345.712 255.156 345.936C255.616 346.932 255.088 347.266 255.095 348.109C255.097 348.564 255.085 349.016 255.058 349.488C254.844 351.405 254.875 354.216 252.119 357.984C249.047 361.871 244.678 362.456 242.557 362.557C242.489 362.56 242.422 362.563 242.355 362.566C237.804 362.655 234.248 362.343 229.82 362.562C229.534 362.574 229.834 363.314 229.587 363.334C226.379 363.544 223.254 363.25 219.562 363.018C219.246 362.993 219.611 363.753 219.091 363.733C218.028 363.691 216.611 363.419 215.168 362.718C214.452 362.362 215.659 362.136 214.933 361.78C214.435 361.524 213.813 361.216 213.074 360.745C212.055 360.079 211.69 359.692 211.258 359.328C211.066 359.16 210.867 358.985 210.681 358.823C210.513 358.678 210.341 358.533 210.166 358.387C209.737 358.028 209.811 359.125 209.312 358.633C206.096 355.388 203.697 352.284 202.257 348.245C202.158 347.964 203.281 346.995 202.738 346.634C202.366 346.804 201.956 347.051 201.572 347.256C198.347 342.203 196.173 336.366 195.534 329.467C195.511 329.173 194.782 329.756 194.734 329.177C194.467 325.854 194.577 322.029 196.708 318.692C196.921 318.37 198.082 319.04 198.336 318.033C198.337 318.026 198.339 318.019 198.341 318.012C198.365 317.849 198.838 316.492 198.775 316.016C198.762 315.947 198.068 315.88 198.29 315.446C199.586 312.934 201.655 310.602 203.977 309.047C204.349 308.801 204.453 309.619 204.718 309.452C206.572 308.282 208.236 306.546 210.293 306.14C211.654 305.891 211.757 307.168 212.845 307.919C212.994 308.025 213.682 307.736 213.986 308.339C214.753 309.849 215.225 311.666 216.082 313.257C216.26 313.599 216.82 312.902 216.763 313.949C216.755 314.019 216.38 314.528 216.398 314.873C216.41 315.111 216.846 315.661 216.805 315.992C216.772 316.32 216.337 315.894 216.232 316.321C216.131 316.752 216.6 317.379 216.179 317.719ZM242.02 329.011C241.383 329.661 243.777 329.718 243.188 329.023C243.157 328.989 242.051 328.977 242.02 329.011ZM238.858 337.637C239.581 338.7 240.156 337.139 239.587 336.328C239.049 335.517 238.661 337.313 238.858 337.637ZM234.731 335.049C234.161 336.118 237.427 335.182 236.562 334.642C236.513 334.608 234.765 334.989 234.731 335.049ZM210.408 309.624C210.431 309.645 210.902 309.397 210.899 309.364C210.763 308.559 209.792 309.072 210.408 309.624ZM230.602 332.173C231.01 331.833 230.44 330.941 229.888 331.37C229.439 331.773 230.084 332.638 230.602 332.173ZM222.762 351.83C222.749 351.796 222.389 351.794 222.41 351.993C222.482 352.641 222.986 352.412 222.762 351.83ZM235.439 339.668C234.885 341.818 231.852 341.997 232.667 340.165C232.81 339.803 233.347 341.171 233.706 340.757C234.371 339.945 232.753 339.012 233.841 338.246C234.043 338.1 235.481 339.542 235.442 339.672C235.441 339.671 235.44 339.669 235.439 339.668ZM239.156 329.439C239.125 329.452 239.103 329.945 239.134 329.954C239.898 330.214 239.943 329.212 239.156 329.439ZM216.767 335.83C216.833 335.805 216.937 334.691 216.879 334.652C215.66 334.003 215.443 336.297 216.767 335.83ZM218.863 344.084C219.578 344.618 219.662 345.021 218.723 345.425C218.751 344.981 218.771 344.532 218.863 344.084Z" fill="white"/>
<path d="M272.791 236.165C272.868 236.135 272.927 236.11 272.967 236.093C273.782 235.49 273.719 235.273 273.568 235.467C273.401 235.641 273.104 236.101 272.836 236.563C272.652 236.89 272.288 236.603 272.142 236.845C271.856 237.329 271.956 237.904 271.669 238.456C271.571 238.645 270.947 238.292 270.86 238.493C270.388 239.613 270.441 240.821 270.223 242.089C269.646 245.483 269.516 249.073 269.641 252.665C269.637 253.074 269.679 253.365 269.688 253.475C269.705 253.593 269.626 253.516 269.586 253.535C269.449 253.571 270.214 254.014 271.522 254.272C271.708 254.314 271.892 254.352 272.078 254.388C273.919 254.767 276.354 255.324 278.242 254.633C278.458 254.553 278.198 254.006 278.23 253.95C278.689 253.079 278.755 254.286 279.225 254.323C281.076 254.469 283.008 253.586 284.03 252.433C284.45 251.946 283.213 251.473 284.087 251.568C284.148 251.571 284.464 252.134 284.635 252.065C284.681 252.045 284.729 252.019 284.776 251.988C285.079 251.81 285.353 251.322 285.522 251.136C285.906 250.719 285.95 250.62 286.203 250.105C286.548 249.401 287.165 248.488 287.226 247.49C287.237 247.28 286.555 247.414 286.51 247.08C286.469 246.748 286.651 245.901 286.832 245.618C287.015 245.336 287.503 245.515 287.624 245.474C288.65 245.106 287.367 243.905 287.334 243.781C286.854 241.257 287.433 238.985 287.058 236.496C286.768 234.619 286.088 232.682 285.645 230.939C285.311 229.614 285.081 228.395 284.739 227.197C284.706 226.969 284.64 226.798 284.381 226.598C284.307 226.543 283.898 227.184 283.826 227.136C283.095 226.563 280.485 225.96 277.679 225.011C277.528 224.938 277.367 224.868 277.199 224.801C277.006 224.726 277.348 224.098 277.142 223.984C275.985 223.171 272.69 222.665 273.186 225.708C273.114 225.731 273.042 225.755 272.967 225.781C272.084 226.091 271.113 226.554 270.101 226.683C269.385 226.783 269.392 225.835 268.986 226.587C268.897 226.756 269.486 227.079 269.329 227.293C268.679 228.183 267.708 228.944 267.271 230.031C267.184 230.252 267.671 230.55 267.713 230.662C268.053 231.566 266.438 231.489 266.236 231.614C264.756 232.48 264.398 233.667 263.627 234.987C263.448 235.296 264.318 235.302 264.169 235.614C263.997 235.968 263.811 236.331 263.615 236.692C263.085 237.679 262.514 238.791 261.873 239.876C261.689 240.185 261.176 239.673 261.056 239.814C260.533 240.461 261.66 240.971 261.217 241.595C261.126 241.73 260.611 241.505 260.545 241.517C259.503 241.718 260.729 242.431 260.734 242.54C260.818 244.02 259.268 244.695 259.28 246.17C259.285 246.342 260.027 246.049 259.999 246.523C259.823 249.657 259.642 252.954 259.439 256.168C259.436 256.194 259.432 256.22 259.429 256.246C259.391 256.59 258.837 256.438 258.774 256.464C258.302 256.742 258.432 256.918 258.675 256.973C258.921 257.036 259.279 256.985 259.318 257.016C259.611 257.262 259.551 257.487 259.737 257.691C259.908 257.878 260.315 257.925 260.805 257.229C261.407 257.551 262.487 257.724 263.616 257.833C267.956 258.249 272.187 257.905 276.463 258.188C276.533 258.19 276.556 258.872 276.697 258.872C278.38 258.857 277.871 257.892 278.313 256.396C278.388 256.088 279.213 256.847 279.588 257.12C279.665 257.176 279.719 257.214 279.738 257.226C280.151 257.481 280.374 258.488 280.488 258.519C281.487 258.698 279.746 255.902 280.442 255.446C280.469 255.435 280.71 256.004 280.807 256.012C281.113 256.034 281.169 255.698 281.484 255.724C282.202 255.786 283.409 256.882 283.498 255.572C283.502 255.404 282.147 254.118 282.837 253.604C283.115 253.408 284.22 252.276 284.634 252.024C285.044 251.781 285.25 252.43 285.292 252.425C286.74 252.095 286.644 252.661 287.921 253.052C289.19 253.449 287.098 251.575 287.07 251.165C287.046 250.827 287.835 250.635 288.295 250.598C288.37 250.608 288.437 250.616 288.485 250.624C288.769 250.66 288.884 251.094 289.101 251.053C290.583 250.528 288.271 249.841 288.047 249.387C287.716 248.889 288.028 248.779 288.521 248.551C289.006 248.339 289.643 248.045 289.794 247.617C289.874 247.389 289.384 247.53 289.359 247.323C289.252 246.527 289.901 245.994 289.24 245.076C289.132 244.909 287.818 244.333 288.647 243.722C288.766 243.631 289.312 243.755 289.367 243.374C289.454 242.806 289.353 241.793 289.03 241.26C288.793 240.869 288.099 241.571 288.211 240.982C288.259 240.716 288.865 241.017 288.91 240.521C288.959 240.038 288.581 238.956 288.391 238.519C288.388 238.511 288.385 238.503 288.381 238.496C288.238 238.225 287.741 238.697 287.689 238.687C287.417 238.711 287.154 238.918 287.14 238.911C286.415 238.418 283.253 238.993 282.153 241.068C281.747 241.749 281.466 242.583 281.332 243.467C281.29 243.745 281.999 243.728 281.999 243.772C282.065 244.751 280.461 243.608 279.717 244.183C281.097 244.36 280.762 244.709 280.799 245.428C280.819 245.772 281.379 245.673 281.428 245.712C282.16 246.315 281.076 246.504 280.85 246.571C280.022 246.806 280.912 247.277 280.363 247.449C279.817 247.628 279.093 247.012 279.036 247.714C279.513 247.951 280.85 247.566 281.013 248.096C281.612 250.056 280.561 253.656 280.517 255.268C280.478 256.253 280.517 256.827 280.517 257.338C280.518 257.655 280.505 257.942 280.46 258.29C280.265 259.947 281.176 259.294 281.731 260.123C282.31 260.857 279.929 260.953 279.457 261.196C278.995 261.461 279.545 261.501 279.329 261.759C279.122 262.037 278.653 261.697 278.707 262.213C278.737 262.475 279.114 262.889 279.588 263.12C280.062 263.36 280.578 263.363 280.811 263.219C281.784 262.573 282.286 261.493 282.446 262.094C282.469 262.135 282.043 262.61 282.159 262.746C282.451 263.063 282.92 263.326 283.439 263.535C284.684 264.033 286.112 264.272 287.487 264.633C287.757 264.703 287.484 265.385 287.644 265.434C289.325 265.922 288.756 264.734 289.622 263.434C289.445 265.158 289.967 266.228 291.289 266.163C292.078 266.116 291.887 265.372 292.327 264.798C292.455 264.626 293.051 265.08 293.105 264.714C293.263 263.52 292.629 262.317 293.865 262.637C293.921 262.652 293.867 263.306 294.055 263.311C294.769 263.328 295.018 262.89 295.273 262.451C295.465 262.136 295.651 261.824 296.039 261.597C296.746 261.207 298.396 261.017 299.217 260.297C300.587 261.691 301.09 260.449 300.216 259.337C300.67 258.8 300.987 258.098 301.458 257.542C301.62 257.349 302.059 257.733 302.127 257.731C303.206 257.673 302.144 256.829 302.154 256.669C302.336 254.876 303.643 253.702 303.106 251.748C303.086 251.676 301.793 251.288 302.859 251.033C302.932 251.018 303.4 251.731 303.632 250.919C303.855 250.181 304.647 249.028 304.853 247.741C304.862 247.621 304.851 247.499 304.816 247.378C304.781 247.248 304.537 246.979 304.392 246.755C304.248 246.525 304.209 246.345 304.643 246.159C304.76 246.106 305.145 246.182 305.362 246.094C305.706 245.943 305.532 245.813 305.412 245.701C305.292 245.581 305.231 245.488 305.768 245.199C306.87 244.711 307.339 242.967 305.678 242.353C305.618 242.323 304.649 242.865 304.404 242.664C304.334 242.605 304.262 242.544 304.184 242.478C303.784 242.133 303.197 241.741 302.687 241.615C302.399 241.545 302.422 242.243 302.37 242.243C300.525 242.228 299.199 241.645 297.056 241.77C296.761 241.792 296.223 242.422 295.65 242.592C295.437 242.654 295.211 242.658 294.964 242.555C293.9 242.165 293.399 238.699 291.684 240.475C290.909 241.287 292.561 245.162 290.165 244.424C288.518 246.646 286.244 248.392 285.951 251.3C285.938 251.43 286.9 252.191 286.798 252.441C286.64 252.824 286.054 252.871 285.929 253.152C285.399 254.316 285.578 255.554 285.223 256.727C285.089 257.17 284.58 256.884 284.417 257.411C284.261 257.907 284.833 258.443 284.373 259.032C284.353 259.056 284.331 259.082 284.307 259.107C283.911 259.476 282.224 260.105 282.358 261.423C283.826 261.085 283.914 261.766 284.86 262.212C285.035 262.282 285.28 261.789 285.375 261.795C285.723 261.767 285.679 262.252 286.027 262.087C286.037 262.081 286.049 262.068 286.062 262.05L285.753 261.987C285.802 261.84 285.811 261.443 285.859 261.368C286.294 260.622 287.168 261.69 287.361 261.866C288.022 262.552 288.206 261.849 288.689 262.071C289.182 262.289 288.581 262.774 289.137 262.86C290.3 263.033 291.678 262.63 292.766 262.392C293.2 262.295 292.745 261.703 292.804 261.673C293.658 261.289 294.724 261.777 294.911 260.34C296.326 263.617 295.371 259.875 296.826 260.285C296.942 260.319 297.396 261.92 297.07 262.237C296.745 262.554 296.057 262.175 295.613 262.669C295.506 262.784 295.151 264.468 295.076 264.583C294.482 265.483 293.785 263.1 293.713 262.977C292.903 261.66 292.403 263.503 292.188 263.672C291.216 264.443 290.195 264.308 289.293 264.852C288.699 265.201 288.876 266.818 288.307 266.845C287.241 266.889 286.464 266.18 285.725 265.879C285.472 265.865 284.797 265.753 284.568 265.644C283.706 265 282.981 264.603 281.428 263.87C281.056 263.678 280.584 263.95 280.17 263.867C279.785 263.802 279.305 263.23 279.674 261.681C279.699 261.584 279.92 260.97 280.133 260.349C280.339 259.715 280.531 259.09 280.249 258.507C280.178 258.359 279.672 258.243 279.676 258.055C279.682 257.848 279.71 257.663 279.753 257.486C279.748 257.266 280.072 257.086 280.018 256.63C279.954 256.086 279.827 255.336 280.164 254.693C280.366 254.305 281.439 253.997 281.72 253.857C282.524 253.468 281.625 252.547 282.525 252.416C283.424 252.306 284.422 253.335 285.208 252.609C283.936 252.169 282.647 251.669 281.379 251.192C282.135 249.025 283.476 247.004 284.847 244.9C285.02 244.636 284.24 244.49 284.417 244.19C285.194 242.91 286.445 242.259 287.461 241.074C288.245 240.156 288.914 238.719 289.987 237.882C291.317 238.727 292.564 237.756 293.795 237.377C293.923 237.335 294.05 237.3 294.174 237.272C294.675 237.163 294.758 237.571 295.123 237.608C296.465 237.781 295.587 236.607 295.895 236.316C297.296 235.128 297.841 238.156 299.387 238.006C299.446 237.993 300.555 236.358 300.752 236.274C301.835 235.674 300.888 236.849 301.509 237.022C302.668 237.38 303.308 237.839 305.01 237.961C305.34 237.993 306.145 237.81 306.933 238.208C307.328 238.405 307.67 238.736 307.803 239.216C307.853 239.398 307.426 239.744 307.493 239.847C308.551 241.682 309.852 240.821 311.034 241.882C312.212 243.045 311.298 245.353 310.934 245.65C310.084 246.605 310.535 244.961 310.412 244.909C309.319 244.483 309.686 245.643 309.534 246.497C307.875 246.552 307.838 247.492 309.36 247.367C309.535 247.343 309.456 246.663 309.534 246.497C310.966 247.21 311.07 248.836 309.556 249.764C309.428 249.734 309.273 249.713 309.092 249.701C308.337 249.701 307.618 249.112 307.616 250.271C307.62 250.815 308.786 250.898 308.984 251.422C309.434 252.64 308.05 253.983 307.859 255.307C307.788 255.792 308.523 255.501 308.492 255.845C308.407 256.769 307.708 257.405 307.592 258.39C307.581 258.481 308.276 258.512 308.172 258.805C307.363 261.037 305.932 262.874 303.975 264.917C303.069 265.925 301.203 267.751 299.822 268.289C299.021 268.634 298.12 268.835 297.215 268.941C295.458 269.142 294.028 268.952 292.943 269.225C291.875 269.477 292.165 270.106 291.722 270.589C290.841 271.529 289.187 269.993 288.996 269.745C288.991 269.739 289.904 269.575 289.413 269.242C289.128 268.539 289.008 269.742 288.996 269.745C288.855 269.599 287.036 269.404 286.66 269.496C286.456 269.553 286.529 270.183 286.421 270.2C285.007 270.41 283.584 270.459 281.876 270.124C280.549 269.827 278.405 269.28 276.473 267.062C276.411 266.976 277.028 266.616 276.889 266.43C275.106 263.704 274.407 262.568 273.586 261.165C272.881 259.785 273.013 258.831 274.167 258.089C274.136 257.958 274.121 257.816 274.12 257.666C274.113 256.878 274.498 255.91 274.755 255.321C275.06 254.623 273.7 254.551 273.672 254.488C272.787 252.568 273.573 251.429 273.792 249.399C273.895 248.432 273.861 246.459 273.875 245.317C273.878 244.416 274.28 243.935 274.249 243.051C274.246 242.931 273.629 242.925 273.613 242.886C273.114 241.75 274.461 242.543 274.762 242.405C275.875 241.899 276.439 241.664 276.439 240.28C276.43 239.983 274.809 238.268 275.072 237.49C275.078 237.469 275.085 237.449 275.092 237.43C275.454 236.521 275.896 237.191 276.311 236.221C276.353 236.138 275.942 235.879 276.372 235.34C278.431 232.833 281.461 231.046 285.231 230.515C285.767 230.455 284.975 229.774 285.809 229.689C287.188 229.584 288.865 229.654 290.823 230.514C292.762 231.31 294.945 233.429 295.688 235.767C295.855 236.36 295.981 236.954 296.057 237.538C296.115 238.015 295.525 237.889 295.408 238.032C294.691 238.885 296.231 239.351 296.294 239.5C297.717 242.905 297.152 245.541 296.743 250.473C296.723 250.617 296.944 251.314 296.849 252.178C296.77 253.026 296.3 254.064 295.384 254.311C295.24 254.377 293.623 254.655 293.202 256.062C293.207 256.078 293.213 256.094 293.219 256.111C293.224 256.125 293.269 256.156 293.325 256.2C293.481 256.231 293.698 256.282 293.607 256.514C293.629 256.587 293.61 256.659 293.506 256.728C293.146 256.964 292.895 257.83 291.834 257.869C291.499 257.881 290.179 257.395 290.336 258.684C290.366 258.758 291.049 261.332 289.575 260.521C289.331 260.386 288.265 259.089 288.056 260.44C288.011 260.703 288.549 260.732 288.284 261.277C287.862 262.124 286.665 262.515 286.082 263.814C285.998 264.034 285.793 265.538 284.655 265.172C284.482 265.111 284.41 264.509 284.025 264.647C283.833 264.715 283.641 264.787 283.449 264.862C281.577 265.605 280.107 266.277 278.574 266.28C277.982 266.272 278.065 265.323 277.459 265.198C276.846 265.076 275.723 265.023 275.214 265.508C274.696 265.996 275.515 267.357 274.647 267.579C270.842 268.517 267.2 267.648 263.66 267.288C263.156 267.234 263.507 267.741 262.838 267.736C262.812 267.736 262.783 267.735 262.753 267.733C261.51 267.575 259.758 267.874 256.273 266.468C254.562 265.761 252.399 264.011 251.357 262.019C250.279 260.04 250.103 258.371 250.112 257.166C250.161 256.704 250.246 256.286 250.369 255.91C251.094 253.797 251.955 256.303 252.203 254.741C252.326 254.006 250.61 253.27 250.551 253.082C249.958 251.291 250.727 250.04 250.584 248.416C250.557 248.077 249.854 248.367 249.839 248.076C249.782 247.077 250.182 246.067 250.243 245.117C250.269 244.69 249.741 244.699 249.834 244.311C250.055 243.38 250.412 242.578 251.07 241.767C251.13 241.695 251.659 242.369 251.817 241.695C252.076 240.597 252.864 239.386 252.769 237.983C252.74 237.57 251.603 237.182 252.661 236.621C252.887 236.5 254.151 237.2 253.329 235.839C253.172 235.643 252.293 233.324 253.69 232.94C254.051 232.844 255.361 232.842 255.452 232.299C255.461 232.225 254.814 232.171 254.905 231.796C254.906 231.784 254.909 231.772 254.913 231.759C255.286 230.668 255.974 229.571 256.49 228.328C256.629 227.992 255.782 228.108 256.01 227.615C256.638 226.256 257.888 224.695 259.054 223.56C259.485 223.143 259.658 223.809 259.732 223.811C260.911 223.895 260.165 222.752 260.266 222.517C260.892 221.104 262.156 220.705 263.11 219.657C263.38 219.368 262.761 219.073 262.785 218.98C263.08 218.02 263.32 219.284 263.801 219.05C265.151 218.409 266.474 217.464 267.78 216.689C268.261 216.406 267.365 216.05 267.813 215.8C267.875 215.765 267.938 215.731 268.001 215.697C270.877 214.132 274.549 213.419 277.936 214.131C278.588 214.273 278.112 214.788 278.233 214.929C278.649 215.439 279.215 215.425 279.764 215.317C280.034 215.161 280.303 214.896 280.394 214.857C281.256 214.489 281.501 215.036 282.323 215.11C283.781 215.259 285.586 215.534 287.9 216.569C290.118 217.492 293.407 220.104 294.509 223.617C294.901 224.851 295.209 226.034 295.468 227.122C296.604 232.081 296.752 235.931 297.135 240.838C297.155 241.152 297.886 240.805 297.913 241.079C298.185 244.656 297.751 248.296 296.567 252.545C296.462 252.897 297.307 252.623 297.151 253.209C296.832 254.425 296.068 255.982 295.087 257.083C294.612 257.614 294.617 256.503 294.156 257.025C293.504 257.747 292.797 258.514 292.032 259.261C291.587 259.694 291.143 260.118 290.72 260.523C290.257 260.962 291.466 260.917 290.813 261.448C286.352 264.961 281.322 266.478 276.397 265.879C276.053 265.835 275.708 264.389 275.05 264.682C275.006 265.09 275.015 265.568 274.998 266.003C273.174 266.089 271.36 265.952 269.591 265.632C267.831 265.258 265.118 264.882 262.143 262.398C259.111 259.817 258.212 256.03 258.092 253.705C258.039 252.771 257.992 251.843 257.947 250.903C257.936 250.661 257.185 251.127 257.16 250.657C257.014 247.939 256.746 245.238 257.637 242.396C257.726 242.116 259.081 242.324 258.92 241.488C258.887 241.345 258.793 240.081 258.531 239.719C258.49 239.67 257.834 239.849 257.852 239.433C257.987 237.003 258.499 234.398 259.751 231.753C259.957 231.333 260.446 232.014 260.599 231.72C261.525 230.08 261.962 227.762 264.74 225.685C265.24 225.353 265.818 225.052 266.467 224.841C268.873 224.215 268.501 225.734 269.66 226.627C269.833 226.746 270.776 226.707 270.803 227.389C270.915 229.078 270.7 230.937 270.872 232.734C270.885 232.928 271.012 232.917 271.161 232.978C271.31 233.039 271.395 233.169 271.152 233.638C271.136 233.67 270.99 233.764 270.92 233.892C270.844 234.02 270.855 234.179 270.885 234.336C270.937 234.551 270.947 235.239 271.076 235.506C271.244 235.765 271.299 235.177 271.655 235.395C272.011 235.608 272.323 236.343 272.791 236.165ZM276.17 252.211C276.832 251.591 274.441 251.447 275.003 252.155C275.033 252.19 276.137 252.244 276.17 252.211ZM285.21 247.908C286.547 247.635 285.553 246.314 284.508 246.469C283.444 246.678 284.795 248.015 285.21 247.908ZM283.122 256.48C284.148 255.771 280.884 254.83 281.318 255.962C281.342 256.028 283.062 256.522 283.122 256.48ZM266.256 228.769C266.275 228.782 266.706 228.417 266.821 228.317C266.835 228.304 266.842 228.294 266.841 228.29C266.786 228.056 266.661 227.949 266.519 227.935C266.118 227.923 265.686 228.541 266.256 228.769ZM287.339 263.625C287 263.206 286.154 263.782 286.567 264.331C286.93 264.777 287.792 264.152 287.339 263.625ZM290.958 247.723C290.923 247.728 290.844 248.085 291.043 248.107C291.692 248.177 291.574 247.615 290.958 247.723ZM299.037 263.08C298.776 262.192 299.004 261.308 299.072 260.505C299.134 260.127 299.273 259.825 299.633 259.822C299.977 259.809 300.557 260.178 300.893 260.911C301.009 261.171 300.667 261.009 300.308 260.92C299.943 260.825 299.59 260.828 299.679 261.149C299.874 262.222 301.688 262.273 301.123 263.515C301.015 263.733 299.061 263.151 299.032 263.078C299.034 263.079 299.035 263.079 299.037 263.08ZM279.048 251.895C279.08 251.883 279.12 251.394 279.089 251.382C278.336 251.096 278.254 252.091 279.048 251.895ZM275.371 259.064C275.333 259.007 274.246 259.105 274.217 259.167C273.792 260.486 276.087 260.279 275.371 259.064ZM299.266 260.321C299.023 259.47 299.218 259.081 300.214 259.338C299.905 259.682 299.608 260.03 299.266 260.321Z" fill="white"/>
<path d="M468.757 311.455C466.76 311.579 464.131 311.567 462.127 311.525C461.498 311.512 461.807 311.313 461.371 311.296C460.525 311.264 459.736 311.397 458.899 311.359C458.62 311.345 458.948 311.032 458.656 311.025C457.054 310.988 455.552 311.163 453.936 311.224C446.278 311.627 437.17 312.026 431.565 314.681C431.507 314.723 431.52 314.736 431.584 314.592C430.526 316.658 429.538 319.309 429.173 321.718C429.125 322.027 429.415 321.894 429.424 321.957C429.571 322.924 429.116 322.529 428.943 323.116C428.262 325.456 427.963 328.191 427.908 330.563C427.887 331.571 428.46 330.593 428.113 331.59C428.089 331.66 427.83 331.389 427.785 331.663C427.683 332.286 427.677 333.485 427.638 333.971C427.56 334.911 427.558 335.069 427.531 335.96C427.492 337.179 427.333 338.632 427.385 339.947C427.398 340.228 427.681 339.858 427.726 340.306C427.749 340.539 427.752 340.971 427.741 341.391C427.731 341.746 427.721 342.081 427.699 342.255C427.652 342.618 427.424 342.482 427.378 342.549C426.974 343.136 427.75 344.333 427.803 344.47C428.608 347.284 429.487 349.697 431.218 351.998C432.533 353.731 434.291 355.327 435.878 356.735C437.772 358.416 439.419 359.85 441.46 361.344C441.674 361.502 441.622 361.05 441.885 361.242C443.38 362.334 444.884 363.443 446.331 364.684C447.557 365.74 448.752 366.808 449.934 367.913C450.187 368.15 449.658 368.091 449.9 368.341C451.381 369.869 453.634 372.426 455.4 372.208C456.489 373.133 457.822 374.229 458.688 375.196C459.248 375.819 458.418 375.595 459.311 376.09C459.512 376.201 459.438 375.803 459.726 375.986C460.942 376.755 462.167 377.734 463.419 378.408C463.674 378.545 463.747 378.295 463.84 378.304C464.605 378.385 465.226 379.503 465.415 379.674C465.454 379.709 465.492 379.744 465.531 379.779C466.891 380.99 468.127 381.563 469.625 382.376C469.985 382.57 469.716 382.05 470.066 382.224C471.879 383.13 473.77 384.058 475.542 385.02C475.935 385.234 475.444 385.324 475.626 385.439C476.435 385.946 476.844 385.541 477.628 386.014C477.793 386.112 477.597 386.291 477.618 386.33C477.952 386.934 478.626 386.582 478.761 386.627C480.468 387.183 481.269 388.208 482.881 388.862C483.074 388.94 482.779 388.462 483.315 388.701C484.352 389.163 485.4 389.67 486.433 390.232C488.384 391.135 491.47 391.398 494.071 391.733C494.649 391.8 494.223 392.01 494.258 392.04C494.843 392.514 495.258 391.933 495.452 391.918C496.976 391.812 498.382 392.329 499.423 391.627C503.39 391.8 507.351 391.602 511.316 391.505C513.628 391.454 515.834 390.951 517.81 389.766C517.876 389.726 517.94 390.045 518.073 389.961C519.637 388.89 519.044 388.737 519.443 387.487C519.534 387.178 520.652 386.854 520.746 386.808C521.082 386.669 521.229 387.194 521.321 387.132C522.082 386.588 520.825 385.851 521.549 384.878C521.573 384.849 521.691 385.136 521.773 385.07C521.795 385.052 521.817 385.033 521.837 385.014C522.037 384.826 522.128 384.561 522.347 384.389C522.888 383.958 523.635 384.108 523.799 382.985C523.812 382.843 523.016 382.627 523.51 381.743C523.72 381.395 524.433 379.731 524.651 379.266C524.882 378.805 525.005 379.227 525.028 379.197C525.834 378.008 525.787 378.55 526.505 378.039C527.216 377.512 525.984 377.331 525.939 377.017C525.895 376.704 526.457 375.795 526.618 375.575C526.782 375.355 526.86 375.706 526.974 375.502C527.718 374.134 526.553 374.709 526.487 374.184C526.318 372.954 527.401 372.277 527.711 371.242C527.794 370.964 527.543 371.152 527.577 370.896C527.711 369.881 528.109 369.333 528.073 368.139C528.067 367.943 527.704 366.917 528.211 366.391C528.284 366.316 528.462 366.6 528.592 366.179C528.787 365.551 529.053 364.402 529.111 363.698C529.154 363.177 528.674 363.691 528.913 363.07C529.019 362.795 529.131 363.365 529.313 362.845C529.493 362.326 529.761 360.964 529.867 360.445C529.971 359.927 529.633 360.149 529.623 360.104C529.57 359.829 529.662 358.803 529.685 358.715C529.818 358.126 529.966 357.545 530.126 356.975C531.14 353.41 531.644 349.786 530.719 346.161C530.636 345.837 530.392 346.119 530.376 346.071C529.994 344.994 530.979 345.684 531.033 344.826C530.476 345.097 530.468 344.602 530.16 343.847C530.009 343.482 529.851 343.759 529.817 343.732C529.302 343.301 529.598 342.776 529.65 342.643C529.842 342.16 529.305 341.913 529.421 341.585C529.533 341.253 530.084 341.692 529.775 340.957C529.488 340.837 529.192 341.593 528.876 341.083C527.722 339.169 526.067 335.282 525.222 333.635C524.388 331.999 524.081 331.483 523.676 330.48C523.11 329.03 522.962 329.25 522.575 328.873C522.482 328.785 522.376 328.663 522.245 328.474C521.582 327.556 522.734 327.567 522.859 327.316C522.975 327.06 522.684 327.005 522.686 326.762C522.685 326.516 523.05 326.842 522.834 326.382C522.622 325.906 521.505 325 521.211 325.016C520.594 325.029 520.561 325.799 519.914 324.719C519.875 324.656 520.236 324.662 520.077 324.43C518.795 322.594 517.011 321.028 515.346 319.474C515.116 319.259 515.523 319.195 515.391 319.067C514.008 317.743 514.231 318.568 513.062 318.388C513.704 317.928 513.524 317.211 512.374 316.338C511.685 315.813 511.604 316.166 511.017 316.011C510.84 315.965 510.491 315.411 510.309 315.466C509.708 315.64 509.817 316.451 508.775 315.342C508.73 315.293 509.067 315.206 508.899 315.052C507.933 314.15 507.455 314.296 506.455 313.606C506.347 313.533 506.233 313.45 506.111 313.356C505.203 312.631 503.643 311.19 502.439 310.516C502.872 309.778 501.583 309.341 500.861 309.667C500.057 309.276 499.145 308.945 498.357 308.566C498.086 308.437 498.355 308.274 498.329 308.236C497.923 307.643 497.357 308.05 497.166 308.007C495.094 307.525 493.559 306.62 491.486 306.43C491.411 306.424 491.13 306.955 490.732 306.384C490.707 306.345 491.431 306.285 490.517 305.985C489.603 305.686 487.97 304.853 486.614 304.696C486.423 304.674 486.031 304.734 485.63 304.672C485.348 304.629 485.069 304.53 484.86 304.3C484.793 304.226 484.934 304.093 484.844 303.966C484.55 303.559 484.165 304.064 483.852 303.444C483.542 302.825 482.667 302.176 481.265 302.2C481.22 302.199 480.801 302.584 480.396 302.486C479.737 302.324 478.823 302.039 478.129 301.92C477.799 301.863 477.959 302.19 477.901 302.185C475.656 301.97 474.098 301.521 471.686 301.262C471.237 301.212 469.956 301.561 469.105 301.239C468.158 300.892 469.146 299.433 466.928 299.811C466.02 299.971 465.011 301.835 463.379 301.006C460.345 301.465 457.479 301.358 454.484 302.092C454.351 302.125 453.982 302.688 453.661 302.723C453.183 302.774 452.888 302.571 452.547 302.599C451.537 302.675 450.603 302.872 449.655 303.013L449.733 302.979C449.445 303.262 449.168 303.551 448.885 303.845C448.53 304.225 448.46 303.922 448.051 304.407C447.65 304.905 447.677 305.423 447.114 306.069C446.694 306.556 445.797 306.848 445.373 307.639C445.962 307.929 445.706 308.465 445.52 309.507C445.485 309.706 445.771 309.58 445.765 309.678C445.749 310.077 445.459 310.352 445.47 310.738C445.473 310.832 445.684 310.904 445.699 310.983C445.828 311.659 445.067 312.484 444.934 312.632C444.432 313.185 444.629 313.566 444.366 314.028C444.104 314.487 444.149 313.705 443.914 314.261C443.761 314.626 443.619 315.026 443.483 315.447C443.481 315.453 443.477 315.474 443.476 315.48C443.293 316.433 443.214 317.465 443.145 318.333C443.108 318.838 443.429 318.513 443.431 318.586C443.437 319.629 443.08 320.673 443.655 321.27C442.099 321.946 443.781 321.902 443.447 323.38C443.42 323.497 442.691 323.636 442.592 323.182C442.493 322.727 442.735 322.046 442.588 321.412C442.553 321.263 441.904 320.383 441.868 320.26C441.587 319.321 442.683 319.248 442.744 319.205C443.414 318.695 442.761 317.608 442.739 317.32C442.675 316.627 442.735 315.989 442.812 315.383C442.815 315.36 442.829 315.292 442.835 315.269C442.96 314.779 443.077 314.313 443.132 313.826C443.21 313.136 442.543 312.882 442.711 312.363C443.285 310.626 444.393 310.336 444.188 308.393C444.157 307.973 443.272 308.038 444.388 306.971C444.459 306.897 445.393 306.199 445.384 305.501C445.383 305.411 445.184 305.303 445.218 305.203C445.459 304.534 445.863 304.23 446.248 303.556C446.635 302.882 447.169 302.068 447.878 301.507C447.977 301.428 448.099 301.359 448.229 301.301C448.466 301.097 449.117 300.797 449.428 300.771C449.806 300.875 450.212 301.097 450.387 301.157C451.028 301.385 451.628 300.82 452.051 301.13C452.481 301.442 451.798 302.082 452.836 302.187C452.798 301.598 452.807 300.988 452.791 300.394C454.995 300.13 457.213 300.012 459.473 299.733C459.753 299.698 459.431 299.415 459.731 299.37C461 299.181 462.141 299.299 463.47 299.113C464.495 298.969 465.624 298.575 466.721 298.462C467.405 299.114 469.023 298.87 470.201 298.97C470.616 299.004 470.581 299.183 470.87 299.253C471.964 299.518 471.477 298.903 471.788 298.824C473.123 298.506 473.139 299.853 474.65 299.973C474.726 299.978 475.801 299.382 475.943 299.358C476.85 299.186 476.053 299.624 476.588 299.752C477.559 299.991 478.204 300.27 479.391 300.286C479.732 300.288 480.635 300.018 481.202 300.505C481.276 300.569 481.176 300.789 481.241 300.818C482.416 301.336 482.62 300.626 483.396 300.571C484.173 300.516 485.112 301.335 485.28 301.545C485.73 302.086 484.801 301.568 484.754 301.595C484.263 301.916 485.065 302.073 485.637 302.297C485.499 303.019 486.328 303.246 486.237 302.531C486.225 302.451 485.745 302.366 485.637 302.297C485.905 302.108 486.203 302.017 486.513 302.027C487.026 302.036 487.557 302.335 488.036 302.935C488.395 303.378 487.852 303.594 489.273 303.898C489.915 304.034 489.826 303.479 490.416 303.517C491.771 303.606 493.286 304.549 494.63 304.887C495.116 305.01 494.732 304.602 495.067 304.677C495.962 304.878 496.671 305.321 497.584 305.519C497.667 305.537 497.565 305.197 497.84 305.287C499.935 305.974 501.713 306.848 503.834 307.972C504.863 308.5 506.737 309.505 507.678 310.312C507.988 310.568 508.294 310.851 508.597 311.155C509.711 312.305 510.955 313.609 512.061 314.35C512.948 314.944 512.938 314.572 513.422 314.692C514.357 314.92 515.217 316.426 515.323 316.642C515.326 316.649 514.539 316.135 514.847 316.556C514.892 316.977 515.314 316.637 515.323 316.642C515.394 316.778 516.845 317.989 517.173 318.19C517.352 318.297 517.435 318.012 517.525 318.071C519.663 319.495 521.742 321.274 523.337 323.627C523.362 323.67 523.072 323.793 523.134 323.891C523.969 325.272 524.807 325.987 525.597 327.168C525.67 327.278 525.738 327.388 525.801 327.498C526.317 328.322 526.566 329.07 526.418 329.838C526.863 330.583 527.257 331.81 527.489 332.529C527.72 333.248 528.294 333.054 528.335 333.106C529.648 334.725 529.948 335.949 530.873 337.964C531.318 338.919 532.246 340.839 532.69 341.946C533.05 342.814 533.085 343.398 533.399 344.217C533.441 344.328 533.667 344.144 533.686 344.177C534.239 345.056 533.49 344.753 533.427 344.976C533.18 345.783 533.062 346.239 533.438 347.428C533.524 347.692 534.551 348.427 534.642 348.973C534.758 349.677 534.41 349.421 534.518 350.15C534.525 350.212 534.734 350.197 534.73 350.649C534.714 352.757 534.319 355.026 533.85 357.097C533.785 357.382 534.191 357.091 534.099 357.507C534.063 357.665 534.026 357.824 533.986 357.985C533.61 359.527 533.219 361.22 532.771 362.74C532.65 363.147 532.477 362.842 532.393 362.919C531.878 363.395 532.313 364.301 532.299 364.433C531.983 367.61 531.039 369.949 530.558 373.29C530.536 373.468 530.835 375.008 530.138 375.497C530.092 375.531 529.391 375.998 529.612 376.638C529.625 376.679 530.012 376.372 529.796 377.034C529.58 377.692 529.433 378.839 528.809 379.653C528.61 379.916 527.848 380.393 527.914 381.412C527.931 381.47 528.274 383.228 527.4 383.404C527.255 383.431 526.651 383.025 526.462 384.192C526.423 384.417 526.759 384.149 526.571 384.702C526.283 385.535 525.525 386.406 525.1 387.459C525.092 387.483 525.084 387.507 525.077 387.531C525.029 387.692 525.017 388.554 524.344 388.818C524.239 388.858 524.152 388.565 523.935 388.805C522.91 389.943 521.861 391.456 520.301 392.463C519.75 392.81 519.777 392.296 519.179 392.585C518.583 392.88 517.388 393.412 516.823 393.825C516.25 394.246 517.199 394.576 516.199 394.984C514.639 395.586 513.027 395.825 511.485 395.855C509.088 395.893 506.697 395.798 504.291 395.804C503.737 395.805 504.198 396.026 503.386 396.042C500.38 396.114 495.136 396.273 492.466 395.574C490.347 395.021 493.066 394.943 491.447 394.652C490.679 394.512 489.711 395.138 489.514 395.134C487.702 395.066 486.559 394.753 484.508 393.793C484.384 393.728 484.255 393.666 484.121 393.606C483.832 393.477 483.966 393.886 483.723 393.775C482.89 393.399 482.072 392.852 481.248 392.493C480.878 392.333 480.85 392.572 480.52 392.4C479.728 391.993 479.041 391.581 478.318 391.027C478.252 390.977 478.865 390.937 478.254 390.655C477.264 390.2 476.101 389.463 474.846 389.143C474.474 389.049 474.246 389.52 473.649 388.855C473.524 388.715 473.982 388.236 472.89 388.332C472.709 388.35 470.932 388.329 470.418 387.55C470.284 387.347 470.029 386.65 469.581 386.514C469.519 386.497 469.619 386.862 469.262 386.713C468.006 386.179 466.759 385.476 465.492 384.841C465.153 384.671 465.494 385.207 464.994 384.944C464.355 384.608 463.669 384.192 462.994 383.741C462.23 383.23 461.485 382.684 460.849 382.194C460.414 381.858 460.863 381.872 460.845 381.828C460.556 381.116 459.921 381.374 459.726 381.279C458.524 380.685 457.866 379.876 456.849 379.213C456.569 379.028 456.596 379.39 456.528 379.37C455.83 379.148 456.537 379.061 456.22 378.756C455.331 377.899 454.243 377.089 453.253 376.357C452.889 376.087 453.092 376.651 452.769 376.407C450.849 374.966 448.942 373.374 447.263 371.771C446.948 371.469 447.315 371.453 447.28 371.352C447.042 370.651 445.997 370.482 445.802 370.388C444.913 369.956 444.766 369.554 444.086 369.046C443.812 368.841 443.538 368.633 443.255 368.415C440.342 366.203 436.531 363.44 433.724 360.937C429.76 357.379 426.786 353.998 424.617 348.845C424.486 348.513 424.311 348.966 424.194 348.679C423.27 346.361 422.861 343.847 422.88 341.378C422.888 340.072 422.896 338.762 422.883 337.438C422.882 337.152 422.565 337.559 422.552 337.099C422.523 336.155 422.572 334.954 422.707 334.001C422.772 333.534 423.013 334.172 423.073 333.703C423.215 332.613 423.296 331.442 423.321 330.309C423.332 329.825 422.968 330.533 423.007 329.904C423.282 325.643 423.734 321.327 425.394 317.054C425.511 316.758 426.198 316.691 426.286 316.027C426.132 315.924 425.933 315.861 425.759 315.78C426.112 314.664 426.534 313.557 427.04 312.471C428.094 310.567 429.042 310.342 429.786 309.878C430.576 309.476 431.247 309.232 431.938 309.002C433.296 308.561 434.577 308.268 435.868 308.008C438.432 307.499 440.949 307.163 443.477 306.847C443.737 306.815 443.243 306.536 443.749 306.472C446.652 306.109 449.454 305.737 452.44 305.833C452.736 305.842 452.633 306.449 453.487 306.292C453.639 306.263 454.931 306.088 455.258 305.936C455.303 305.913 455.046 305.651 455.465 305.614C457.899 305.403 460.456 305.327 462.898 305.398C463.294 305.41 462.886 305.724 463.167 305.735C465.153 305.813 467.305 305.526 469.205 305.767C470.49 305.931 470.02 306.452 470.69 306.951C470.789 307.021 471.577 307.028 471.615 307.323C471.72 308.062 471.349 308.873 471.505 309.661C471.541 309.83 472.555 309.647 471.955 310.058C471.915 310.085 471.172 310.223 470.985 310.364C470.856 310.461 471.091 310.759 470.828 310.884C470.566 311.009 470.287 310.761 469.854 310.911C469.425 311.063 469.606 311.4 468.757 311.455ZM528.549 335.792C528.626 336.542 529.6 336.147 529.021 335.592C528.992 335.566 528.545 335.754 528.549 335.792ZM457.309 300.813C458.265 301.158 458.805 300.412 458.123 300.134C457.436 299.859 457.018 300.709 457.309 300.813ZM448.006 303.449C449.014 302.888 448.124 301.683 447.457 302.831C447.419 302.899 447.946 303.485 448.006 303.449ZM467.582 307.143C467.59 307.157 468.159 307.158 468.171 307.144C468.467 306.806 467.331 306.803 467.582 307.143ZM444.267 312.189C444.549 311.927 444.603 310.945 444.245 311.269C443.954 311.531 443.912 312.518 444.267 312.189ZM528.217 371.319C528.2 371.326 528.102 371.717 528.19 371.727C528.474 371.76 528.512 371.195 528.217 371.319ZM442.859 327.974C442.917 325.633 444.155 324.229 444.005 326.767C443.978 327.228 443.617 325.773 443.504 326.359C443.299 327.432 444.07 328.145 443.657 329.24C443.581 329.438 442.853 328.108 442.857 327.97C442.858 327.971 442.859 327.972 442.859 327.974ZM527.628 336.737C527.623 336.755 527.87 337.253 527.888 337.258C528.323 337.372 527.824 336.365 527.628 336.737ZM516.792 390.763C516.758 390.769 515.64 391.266 515.608 391.289C515.199 392.079 517.589 391.028 516.792 390.763ZM502.431 310.486C501.755 310.506 501.122 310.245 500.863 309.668C501.39 309.932 501.921 310.193 502.431 310.486Z" fill="white"/>
</svg>
