<svg width="499" height="659" viewBox="0 0 499 659" fill="none" xmlns="http://www.w3.org/2000/svg">
<path d="M6.91989 66.4295C4.06054 51.0605 4 34.6148 4 18.9813C4 6.82098 13.6917 10.9516 24.6014 10.9516C43.04 10.9516 61.4786 10.9516 79.9171 10.9516" stroke="white" stroke-width="7" stroke-linecap="round"/>
<path d="M415.705 6.57183C417.909 6.57183 487.541 -0.0909584 488.702 8.03177C491.09 24.7506 494.542 40.9849 494.542 58.0754C494.542 64.9487 493.082 71.7189 493.082 78.1091" stroke="white" stroke-width="7" stroke-linecap="round"/>
<path d="M8.38012 586.17C8.38012 606.123 8.38012 626.075 8.38012 646.028C8.38012 648.041 7.49339 652.518 10.0834 653.165C20.7098 655.822 33.6467 654.787 44.4732 654.787C61.6411 654.787 78.809 654.787 95.9768 654.787" stroke="white" stroke-width="7" stroke-linecap="round"/>
<path d="M423.005 653.328C437.63 652.596 452.101 651.868 466.803 651.868C476.658 651.868 491.017 651.771 491.622 639.377C492.723 616.817 490.162 593.3 490.162 571.571" stroke="white" stroke-width="7" stroke-linecap="round"/>
</svg>
