<svg width="287" height="12" viewBox="0 0 287 12" fill="none" xmlns="http://www.w3.org/2000/svg">
<path d="M1 8.11311C7.99945 5.04698 15.3104 1 23.1791 1C25.3948 1 26.9509 2.5757 28.9091 2.77828C32.8248 3.18335 36.084 5.89026 40.2209 5.89026C42.8466 5.89026 45.6626 6.24913 48.1244 5.22341C50.3829 4.28237 53.7812 2.41799 56.2254 2.33371C61.683 2.14552 66.1997 2.54243 70.7974 5.69268C72.6027 6.92962 74.5419 9.68018 76.8732 9.86669C79.82 10.1024 84.04 10.5089 86.8019 9.49621C90.9912 7.96012 95.1862 6.43788 99.4474 5.05052C101.78 4.29118 105.183 2.95077 107.598 2.77828C109.913 2.61288 112.181 5.15817 113.723 6.60651C116.009 8.75353 116.988 9.89139 120.046 9.89139C128.285 9.89139 135.951 4.98816 144.151 4.55655C146.466 4.43475 147.593 5.07366 149.461 6.55712C151.018 7.79328 152.608 10.2727 154.821 10.336C158.734 10.4477 161.285 9.40899 164.898 7.91552C169.87 5.86031 175.413 4.29237 180.606 2.97586C182.234 2.56313 184.676 2.16852 186.385 2.35841C188.688 2.6142 191.122 5.50422 193.301 6.43363C195.808 7.50272 196.616 8.11311 199.426 8.11311C201.946 8.11311 204.538 8.16984 206.984 7.47095C210.114 6.57672 212.894 5.22567 216.172 4.75414C219.778 4.2353 223.035 2.90974 226.619 2.35841C229.116 1.97426 230.216 3.74802 232.028 5.09992C237.762 9.37742 245.654 12.4693 252.873 9.59501C255.321 8.62048 257.506 7.09123 259.986 6.13725C262.469 5.18244 265.03 4.84468 267.544 4.06259C270.064 3.27875 272.415 2.19309 275.151 2.87707C276.439 3.19912 277.429 4.18332 278.609 4.75414C279.272 5.07508 280.07 6.22254 280.684 6.31013C282.097 6.51207 283.65 6.33483 285.08 6.33483" stroke="#F1893A" stroke-width="2" stroke-linecap="round"/>
</svg>
